<svg xmlns="http://www.w3.org/2000/svg" width="52" height="52" fill="none"><path fill="url(#a)" fill-rule="evenodd" d="M45.318 41.615 27.588 5.062c-.294-.616-.914-1-1.59-1-.675 0-1.295.392-1.597 1L6.68 41.615a1.8 1.8 0 0 0 .31 2.014 1.77 1.77 0 0 0 1.987.408L20.634 39a.5.5 0 0 1 .215-.04c.223 0 .413.136.493.328l3.02 7.53c.27.67.922 1.118 1.645 1.118h.008c.723 0 1.375-.447 1.645-1.127l2.948-7.521a.536.536 0 0 1 .668-.288l11.761 5.052c.684.296 1.47.128 1.98-.408a1.82 1.82 0 0 0 .301-2.03M25.566 7.096l-.755 30.953a1.186 1.186 0 1 0 2.37-.007l-.935-30.948a.34.34 0 0 0-.68.002" clip-rule="evenodd"/><defs><linearGradient id="a" x1="26.404" x2="26.404" y1="47.927" y2="4.063" gradientUnits="userSpaceOnUse"><stop stop-color="#006DEE"/><stop offset=".311" stop-color="#1E9DF5"/><stop offset=".614" stop-color="#36C5FA"/><stop offset=".853" stop-color="#45DDFE"/><stop offset="1" stop-color="#4BE6FF"/></linearGradient></defs></svg>