<svg xmlns="http://www.w3.org/2000/svg" width="2500" height="2500" viewBox="0 0 192.756 192.756"><path fill="none" d="M0 192.756h192.756V0H0z"/><path fill="#cc1e4c" fill-rule="evenodd" d="m34.845 120.531-6.344-11.32h22.934L39.919 84.813l-16.883 35.718H2.833l26.449-48.209h21.275l26.252 48.209z" clip-rule="evenodd"/><path fill="#cc1e4c" fill-rule="evenodd" d="M76.907 92.523h25.179c6.343 0 8.881-.39 8.881-4.879 0-4.294-2.05-4.782-8.589-4.782H76.809l-5.66-10.54h35.523c16.786 0 23.032 7.319 23.032 15.126 0 7.515-5.759 15.81-24.203 15.81h-8.393v17.273h-20.3V92.523z" clip-rule="evenodd"/><path fill="#cc1e4c" fill-rule="evenodd" d="M182.306 116.922c-6.05 2.828-13.564 4.195-21.568 4.195-24.201 0-32.498-13.467-32.498-24.594 0-14.052 12.298-24.885 33.475-24.885 7.711 0 14.444 1.171 20.105 3.319v13.955c-5.856-3.123-10.932-4.489-16.885-4.489-10.149 0-18.445 4.587-18.445 11.906 0 7.222 8.491 11.907 18.641 11.907 5.855 0 10.638-1.172 17.176-4.197z" clip-rule="evenodd"/><path fill-rule="evenodd" d="M183.694 78.321c0-1.764 1.431-3.064 3.121-3.064 1.674 0 3.105 1.3 3.105 3.064 0 1.78-1.432 3.081-3.105 3.081-1.69 0-3.121-1.301-3.121-3.081m3.121 2.569c1.391 0 2.487-1.089 2.487-2.569 0-1.455-1.097-2.552-2.487-2.552-1.405 0-2.503 1.097-2.503 2.552 0 1.48 1.098 2.569 2.503 2.569m-.649-.789h-.537v-3.544h1.349c.838 0 1.252.309 1.252 1.008 0 .635-.397.911-.918.976l1.007 1.56h-.601l-.936-1.536h-.616zl.642-1.991c.455 0 .862-.033.862-.577 0-.439-.399-.52-.773-.52h-.73v1.097h.642z" clip-rule="evenodd"/></svg>