<svg xmlns="http://www.w3.org/2000/svg" xml:space="preserve" id="Layer_1" x="0" y="0" version="1.1" viewBox="0 0 512 512"><style>.st0{fill-rule:evenodd;clip-rule:evenodd;fill:#1f88c0}</style><g id="Icon" transform="matrix(.85801 0 0 .90748 -3224.99 -1435.83)"><path d="M4314.693 1795.227c7.42 33.993 6.673 67.565.563 99.736-6.21 32.657-18.722 63.552-36.641 91.445a307 307 0 0 1-23.638 32.035c-8.585 10.048-17.877 19.75-27.99 28.674-29.593 26.418-65.388 47.44-106.907 59.409-32.91 9.739-66.139 13.426-98.6 11.383-34.19-2.193-67.223-10.373-97.775-23.898l-3 5.407c30.402 16.403 63.896 27.452 99.068 32.45 34.47 4.957 70.331 3.94 106.424-3.659 46.796-10.314 88.463-30.608 122.545-58.306a256 256 0 0 0 32.365-31.534c9.748-11.435 18.53-23.608 25.99-36.424 18.502-31.732 30.346-67.127 33.7-103.853 3.152-34.907-1.335-70.836-13.773-106.092zm-472.603 235.266c-13.593-14.08-25.756-29.693-35.858-46.78-9.843-16.695-17.64-34.629-23.516-53.692-2.245-9.525-3.932-18.97-4.936-28.444-4.104-38.793 2.524-76.473 15.595-111.583 6.999-18.83 16.334-36.675 26.958-53.714 14.179-22.672 30.97-43.896 51.35-62.322 29.959-27.053 66.32-48.534 108.59-60.857 34.38-9.98 69.207-13.711 102.997-10.72 23.493 2.067 46.492 6.875 68.073 14.978 24.403 9.188 46.916 22.489 67.189 38.308 19.89 15.537 37.278 34.047 51.934 54.67 1.95 2.7 3.171 5.824 5.585 8.246 1.864 1.803 3.98 2.54 6.124 3.96l8.72-5.252c-.548-2.615-.512-4.773-1.613-7.163-1.526-3.12-4.317-5.518-6.645-8.193-23.863-28.359-53.37-51.446-86.252-68.796-14.019-7.368-28.667-13.647-43.695-19.056-16.566-5.995-33.618-10.939-51.184-14.364-40.092-7.9-82.38-8.537-124.862.698-46.119 9.98-87.185 29.652-120.863 56.858-23.39 18.926-43.58 41.214-58.633 66.345-11.296 18.83-19.544 39.299-25.013 60.404-9.82 38.075-9.935 78.306-1.08 118.511 2.083 9.492 4.543 18.96 7.705 28.47 5.112 19.65 12.524 38.148 21.643 55.575 9.454 18.103 20.72 34.955 33.741 50.338z" class="st0"/><path d="M-51.7 26.4c.1-6.4-5.5-11.6-12.2-11.6-3.6 0-6.8 1.5-9.1 3.9-2 2.1-3.3 4.9-3.3 7.9-.1 6.4 5.5 11.6 12.2 11.6 6.7-.1 12.3-5.4 12.4-11.8z" style="fill:none;stroke:#1f88c0;stroke-width:5.7819;stroke-linejoin:round;stroke-miterlimit:22.0264" transform="rotate(-171.321 2107.672 748.746)scale(3.41014)"/><path d="M4217.164 1832.067s7.23-6.484 16.677-14.671c15.922-15.027 37.43-36.213 37.43-36.213l-7.031-7.707s-25.336 16.637-43.393 29.559c-9.982 7.66-18.28 13.092-18.28 13.092z" class="st0"/><g id="Padlock"><path d="M24.1 91.2h51c2.9 0 5.2-2.2 5.2-4.9V37.9c0-2.7-2.3-4.9-5.2-4.9H-.8C-3.7 33-6 35.2-6 37.9v28.6" style="fill:none;stroke:#22b638;stroke-width:9.5045;stroke-miterlimit:20.1153" transform="translate(3938.31 1737.25)scale(3.11426)"/><path d="M12.6 33V9.7c0-12.8 11.1-23.3 24.6-23.3S61.8-3.1 61.8 9.7V33" style="fill:none;stroke:#22b638;stroke-width:9.5045;stroke-linejoin:round;stroke-miterlimit:20.1153" transform="translate(3938.31 1737.25)scale(3.11426)"/></g><path d="M28.5 56.3c0-2-.5-3.9-1.4-5.5-2.1-3.6-6.1-6.1-10.8-6.1C9.6 44.7 4 50 3.9 56.4 3.9 62.8 9.4 68 16.1 68s12.3-5.3 12.4-11.7z" style="fill:none;stroke:#1f88c0;stroke-width:8.4748;stroke-linejoin:round;stroke-miterlimit:34.5908" transform="rotate(7.483 -11286.051 30322.67)scale(5.35538)"/><path d="M4036.657 1923.344s-40.417 23.032-69.58 40.521c-16.492 10.221-28.941 18.58-28.941 18.58l25.805 31.141s11.845-9.152 26.031-22.006c25.046-22.506 58.435-53.981 58.435-53.981z" class="st0"/></g></svg>