<svg xmlns="http://www.w3.org/2000/svg" fill="none" viewBox="1.77 -0.02 65.46 69.04"><g stroke="#141a1f" stroke-width="2.771"><path fill="#e83030" d="m29.025 44.19-5.506-9.69 5.506-9.689h10.974l5.506 9.69-5.506 9.689z"/><path fill="#6b91c7" d="m29.025 67.634-5.506-9.69 5.506-9.689h10.974l5.506 9.69-5.506 9.69z"/><path fill="#f9c31f" d="m29.025 20.745-5.506-9.69 5.506-9.69h10.974l5.506 9.69-5.506 9.69z"/><path fill="#795aa5" d="m49.365 55.911-5.506-9.69 5.506-9.689h10.973l5.506 9.69-5.506 9.69z"/><path fill="#f17423" d="m49.365 32.466-5.506-9.69 5.506-9.689h10.973l5.506 9.69-5.506 9.69z"/><path fill="#97c639" d="m8.662 55.91-5.506-9.689 5.506-9.69h10.973l5.506 9.69-5.506 9.69z"/><path fill="#c9db70" d="m8.662 32.466-5.506-9.69 5.506-9.689h10.973l5.506 9.69-5.506 9.69z"/></g></svg>