<svg xmlns="http://www.w3.org/2000/svg" width="62.928" height="63.52" viewBox="0 0 16.65 16.806"><path d="M16.504 127.275a8.403 8.403 0 1 1 5.688-14.584l-1.987 2.085a5.522 5.522 0 1 0 0 8.202l1.987 2.077a8.38 8.38 0 0 1-5.688 2.22m6.762-4.205a.688.688 0 1 1 .688-.688.69.69 0 0 1-.688.688" class="cls-1" style="fill:#e03875;stroke:none;stroke-width:1.32292;stroke-linecap:square;stroke-miterlimit:4;stroke-dasharray:none;stroke-opacity:1;paint-order:markers stroke fill" transform="translate(-8.096 -110.468)"/><path d="M16.45 120.692a1.82 1.82 0 1 1 1.821-1.82 1.82 1.82 0 0 1-1.82 1.82m7.607.026a.688.688 0 1 1 .687-.688.69.69 0 0 1-.687.688m-2.048-.079a.688.688 0 1 1 .688-.688.69.69 0 0 1-.688.688m2.048-2.236a.688.688 0 1 1 .687-.688.69.69 0 0 1-.687.688m-2.048.079a.688.688 0 1 1 .688-.687.69.69 0 0 1-.688.687m1.296-2.394a.688.688 0 1 1 .688-.688.69.69 0 0 1-.688.688" class="cls-1" style="fill:#e03875;stroke:none;stroke-width:1.32292;stroke-linecap:square;stroke-miterlimit:4;stroke-dasharray:none;stroke-opacity:1;paint-order:markers stroke fill" transform="translate(-8.096 -110.468)"/></svg>