<svg xmlns="http://www.w3.org/2000/svg" xml:space="preserve" viewBox="-0.07 71.3 511.97 369.5"><path d="M501.4 212.3c-11.5-8-38-11-58.6-7-2.4-20-13.5-37.5-32.7-53l-11-8-7.7 11.5c-9.6 15-14.4 36-13 56 .5 7 2.9 19.5 10.1 30.5-6.7 4-20.7 9-38.9 9H2.3l-1 4c-3.4 20-3.4 82.5 36 130.5 29.8 36.5 74 55 132.1 55 125.9 0 219.1-60.5 262.8-170 17.3.5 54.3 0 73-37.5.5-1 1.4-3 4.8-10.5l1.9-4zM280 71.3h-52.8v50H280zm0 60h-52.8v50H280zm-62.5 0h-52.8v50h52.8zm-62.4 0h-52.8v50h52.8zm-62.5 60H39.8v50h52.8zm62.5 0h-52.8v50h52.8zm62.4 0h-52.8v50h52.8zm62.5 0h-52.8v50H280zm62.4 0h-52.8v50h52.8z" style="fill:#2396ed"/></svg>