<svg xmlns="http://www.w3.org/2000/svg" viewBox="0 0 37 37" role="img"><title>eBPF</title>
<path fill-rule="evenodd" clip-rule="evenodd" d="M23.6364 0.106928C24.1204 0.35135 24.312 0.936445 24.0643 1.41377C23.5753 2.35627 23.3107 3.70811 23.2095 5.09761C23.1097 6.46905 23.1762 7.76694 23.2784 8.53081C23.3496 9.06248 22.9704 9.55029 22.4314 9.62036C21.8924 9.69043 21.3977 9.31623 21.3266 8.78455C21.2063 7.88621 21.1367 6.45642 21.2458 4.95796C21.3536 3.47756 21.643 1.81727 22.3116 0.52864C22.5593 0.0513118 23.1524 -0.137495 23.6364 0.106928Z" fill="#1A1A1A"/>
<path d="M17.9279 15.4786C18.5189 12.7085 12.5117 12.2564 9.43416 12.3767C-2.69837 12.6341 2.37299 19.9723 9.09016 20.7904C11.8545 21.1271 17.1891 18.9412 17.9279 15.4786Z" fill="#CFEDFC"/>
<path d="M3.00152 13.9149C3.34206 13.6378 3.78418 13.387 4.33873 13.1719L4.51164 13.7078L5.39178 14.8076L6.68105 15.9606L7.67155 15.8156L12.6226 15.3092L17.8271 15.8584C17.6634 16.3734 17.3984 16.8575 17.0577 17.3061C15.5173 17.0017 11.9211 16.9114 9.96784 16.9078C9.44518 17.5136 9.25598 19.5736 9.2151 20.8038C9.17288 20.7999 9.1312 20.7954 9.09009 20.7904C8.54185 20.7236 8.00457 20.6134 7.48672 20.4672C7.43882 19.5053 7.77515 18.1299 8.01989 17.3664C6.48879 17.4486 4.86925 18.1947 3.97602 18.7145C3.56434 18.3884 3.20739 18.0402 2.91797 17.6812L4.90253 16.6055C4.59621 16.4519 3.62819 14.9452 3.00152 13.9149Z" fill="#00ACE6"/>
<path d="M16.8986 18.8203L18.6824 20.0102L10.6222 31.7738L8.6855 30.4819L7.19797 28.3177L6.45312 24.7445L7.78699 21.6056L10.9884 22.569L16.8986 18.8203Z" fill="#FFE100"/>
<path fill-rule="evenodd" clip-rule="evenodd" d="M15.2758 11.0042C17.6669 5.91806 23.4834 7.16509 26.2304 8.9974L18.6815 20.0147L17.8151 19.4368C16.7151 20.6954 14.4682 21.6481 13.4823 21.9671C13.5824 23.3816 14.7857 24.4723 15.3748 24.8408L12.8947 28.4604C9.99982 26.5294 9.15423 23.7679 9.09329 22.6286L8.01879 22.5711C6.12164 26.8139 9.09654 30.102 10.9313 31.3259L7.72792 36.0012L8.28497 31.6116C4.67388 28.5583 5.31993 23.9449 6.09434 22.0199C3.60654 21.5324 -0.711164 17.9714 0.0999613 14.9451C1.51225 9.67571 10.7796 9.76306 15.2758 11.0042ZM17.9296 15.4647C18.4917 12.7102 12.5033 12.2603 9.43223 12.3803C7.47994 12.4217 5.97311 12.6465 4.84693 12.9979C5.34811 14.5336 6.51025 15.2973 7.07462 15.4955C10.6354 14.6967 15.2589 15.0652 17.9296 15.4647ZM17.705 16.192C15.8425 15.9533 13.0673 15.8918 11.6275 15.8954C9.67225 17.2123 9.42147 19.4331 9.58782 20.8273C12.2362 20.8722 16.5283 19.0513 17.705 16.192ZM8.69484 20.7384C8.33755 18.7188 9.48762 16.8132 10.1934 16.0376C6.57245 16.1739 4.28978 17.1876 3.17462 17.9833C4.36787 19.2712 6.41676 20.3721 8.69484 20.7384ZM2.5405 17.15C3.43562 16.6104 5.0393 16.1139 5.9119 15.8919C4.65035 14.9612 4.0995 13.9896 3.90472 13.3608C1.93141 14.2966 1.70772 15.7616 2.5405 17.15Z" fill="#1A1A1A"/>
<path fill-rule="evenodd" clip-rule="evenodd" d="M35.5569 8.05483C35.1467 7.70286 34.5251 7.74552 34.1684 8.15012C33.4642 8.949 32.2913 9.69496 31.0222 10.3054C29.7695 10.9078 28.5241 11.3307 27.7675 11.5217C27.241 11.6546 26.9235 12.1836 27.0584 12.7031C27.1933 13.2226 27.7295 13.536 28.2561 13.403C29.1458 13.1784 30.5165 12.7093 31.8852 12.051C33.2373 11.4007 34.691 10.517 35.6539 9.42473C36.0105 9.02013 35.9671 8.40681 35.5569 8.05483Z" fill="#1A1A1A"/>
<path d="M23.2275 19.0151C25.6125 17.4417 28.2763 22.7735 29.31 25.6361C33.5891 36.8406 24.7976 34.9318 21.525 29.0864C20.1782 26.6809 20.2462 20.9819 23.2275 19.0151Z" fill="#CFEDFC"/>
<path d="M30.2594 32.1C30.3931 31.6849 30.4642 31.1867 30.4599 30.5988L29.8914 30.6402L28.529 30.2441L26.9642 29.4933L26.7315 28.5324L25.3628 23.8105L22.9067 19.25C22.4834 19.5918 22.1269 20.0148 21.8319 20.4939C22.6923 21.7909 24.1172 25.0499 24.8486 26.8369C24.4735 27.5412 22.6066 28.4821 21.4648 28.978C21.4842 29.0152 21.504 29.0517 21.524 29.0875C21.7911 29.5645 22.095 30.0154 22.4255 30.435C23.348 30.1205 24.5163 29.3 25.1431 28.7914C25.6364 30.2239 25.5382 31.9847 25.3822 32.9963C25.8423 33.2517 26.3028 33.4488 26.7483 33.58L27.0205 31.3621C27.2791 31.5853 29.0569 31.9101 30.2594 32.1Z" fill="#00ACE6"/>
<path d="M20.4651 21.1977L18.6813 20.0078L10.6211 31.7714L12.5578 33.0633L15.1476 33.6187L18.7858 32.9692L21.241 30.5782L19.1418 28.006L20.4651 21.1977Z" fill="#FFE100"/>
<path fill-rule="evenodd" clip-rule="evenodd" d="M28.4238 19.774C32.3164 15.6893 28.976 10.8284 26.229 8.99609L18.6802 20.0134L19.5466 20.5914C18.7728 22.0675 18.7141 24.4798 18.7815 25.5013C17.4137 25.9368 15.9396 25.2416 15.3734 24.8395L12.8934 28.4591C15.7882 30.3901 18.7006 30.1352 19.7949 29.7664L20.2493 30.7288C16.9659 34.0469 12.7648 32.5484 10.93 31.3246L7.72656 35.9999L11.6474 33.8541C15.8647 36.0226 19.9629 33.7119 21.4849 32.2854C22.8704 34.3816 27.8286 37.0079 30.3727 35.1375C34.8023 31.8808 31.2666 23.4281 28.4238 19.774ZM23.2397 19.0063C25.6209 17.4652 28.2757 22.7805 29.3072 25.6371C29.9958 27.44 30.3459 28.9034 30.435 30.0655C28.8039 30.1789 27.6526 29.3995 27.2559 28.9566C26.6802 25.3987 24.6107 21.3028 23.2397 19.0063ZM22.6394 19.483C23.5579 21.0993 24.65 23.6173 25.1831 24.9371C24.6731 27.218 22.6779 28.2752 21.3047 28.6424C20.2756 26.2343 20.3887 21.6258 22.6394 19.483ZM21.721 29.4269C23.7537 29.0014 25.1173 27.2383 25.5838 26.3031C26.8049 29.6692 26.7022 32.137 26.3694 33.4545C24.7134 32.8419 22.9145 31.3762 21.721 29.4269ZM27.3894 33.7246C27.5634 32.7039 27.4327 31.0506 27.3164 30.1689C28.6618 30.9771 29.7809 31.1194 30.4448 31.0635C30.3001 33.2189 29.0055 33.9697 27.3894 33.7246Z" fill="#1A1A1A"/>
</svg>
