<svg xmlns="http://www.w3.org/2000/svg" viewBox="0 0.82 48 46.37"><g fill="#419eda"><path d="M21.97 21.43a3.13 3.13 0 1 1-6.261.001 3.13 3.13 0 0 1 6.26 0zm4.046 0a3.13 3.13 0 1 0 6.261.001 3.13 3.13 0 0 0-6.261 0z"/><path d="M47.32 24.83a9 9 0 0 1-4.665-.9c.407-2.333.58-4.684.535-7.027a36.5 36.5 0 0 0-4.548-5.39 9.04 9.04 0 0 1 3.206-3.435l.588-.363-.458-.516c-2.36-2.657-5.175-4.71-8.367-6.104l-.636-.277-.162.673a9 9 0 0 1-2.268 4.118 36.4 36.4 0 0 0-6.555-2.701 36.4 36.4 0 0 0-6.544 2.695 9 9 0 0 1-2.26-4.108l-.163-.673-.635.276c-3.151 1.373-6.044 3.482-8.365 6.1l-.459.517.587.363a9 9 0 0 1 3.198 3.417 36.7 36.7 0 0 0-4.54 5.369c-.052 2.341.112 4.71.52 7.076a9 9 0 0 1-4.641.89l-.69-.052.065.688a23.8 23.8 0 0 0 3.216 9.848l.35.596.527-.447a9 9 0 0 1 4.264-1.997 36.5 36.5 0 0 0 3.648 5.943 37 37 0 0 0 6.915 1.7 9 9 0 0 1-.576 4.719l-.263.64.676.148c1.729.38 3.473.574 5.18.574l5.18-.574.676-.149-.264-.64a9 9 0 0 1-.574-4.722 37 37 0 0 0 6.888-1.696 36.6 36.6 0 0 0 3.653-5.949 9.05 9.05 0 0 1 4.284 1.999l.527.446.35-.594a23.7 23.7 0 0 0 3.213-9.846l.065-.687zm-15.918 8.418a28.2 28.2 0 0 1-7.412 1.003c-2.48 0-4.966-.336-7.418-1.003a28.7 28.7 0 0 1-3.175-6.688 28.4 28.4 0 0 1-1.338-7.337 28.3 28.3 0 0 1 5.375-5.118 28.6 28.6 0 0 1 6.556-3.565c2.33.9 4.526 2.093 6.544 3.557a28.4 28.4 0 0 1 5.398 5.151 28.5 28.5 0 0 1-1.351 7.305 28.6 28.6 0 0 1-3.179 6.695"/></g></svg>