<svg xmlns="http://www.w3.org/2000/svg" xml:space="preserve" viewBox="0 0 512 512"><linearGradient id="a" x1="256" x2="256" y1="359.964" y2="4.738" gradientTransform="matrix(1 0 0 -1 0 513)" gradientUnits="userSpaceOnUse"><stop offset="0" style="stop-color:#f05a28"/><stop offset="1" style="stop-color:#fbca0a"/></linearGradient><path d="M490.8 226c-.8-8.6-2.3-18.5-5.1-29.5-2.8-10.9-7.1-22.8-13.3-35.3-6.2-12.4-14.2-25.2-24.7-37.8-4.1-4.9-8.6-9.7-13.4-14.4 7.2-28.6-8.7-53.5-8.7-53.5-27.5-1.7-45 8.6-51.5 13.3-1.1-.4-2.1-1-3.2-1.4-4.7-1.8-9.5-3.7-14.5-5.2-4.9-1.6-10-3-15.2-4.2-5.2-1.3-10.4-2.3-15.8-3.1-1-.1-1.8-.3-2.8-.4C310.6 16.1 276.1 0 276.1 0c-38.5 24.4-45.7 58.5-45.7 58.5s-.1.7-.4 2c-2.1.6-4.2 1.3-6.3 1.8-3 .8-5.9 2-8.7 3.1-3 1.1-5.8 2.3-8.7 3.5-5.8 2.5-11.6 5.4-17.2 8.5-5.5 3.1-10.9 6.5-16.1 10l-1.4-.6C118.2 66.6 70.9 91 70.9 91c-4.4 56.7 21.3 92.4 26.4 98.9-1.3 3.5-2.4 7.1-3.5 10.6-3.9 12.8-6.9 26-8.7 39.6-.3 2-.6 3.9-.7 5.9-49.4 24.4-63.9 74.2-63.9 74.2 41 47.3 89 50.2 89 50.2l.1-.1q9.15 16.35 21 30.9c3.4 4.1 6.8 7.9 10.4 11.7-15 42.9 2.1 78.4 2.1 78.4 45.7 1.7 75.7-20 82.1-25 4.5 1.6 9.2 3 13.8 4.1 14.1 3.7 28.5 5.8 42.9 6.3 3.5.1 7.2.3 10.7.1h5.1l2.3-.1v.1c21.6 30.7 59.4 35.1 59.4 35.1 26.9-28.4 28.5-56.6 28.5-62.6v-2.5c5.6-3.9 11-8.2 16.1-12.8 10.7-9.7 20.2-20.9 28.1-32.9.7-1.1 1.4-2.3 2.1-3.4 30.5 1.7 52-18.9 52-18.9-5.1-31.7-23.1-47.3-26.9-50.2 0 0-.1-.1-.4-.3-.3-.1-.3-.3-.3-.3-.1-.1-.4-.3-.7-.4.1-2 .3-3.8.4-5.8.3-3.4.3-6.9.3-10.3v-5.3l-.1-2.1-.1-2.8c0-1-.1-1.8-.3-2.7s-.1-1.8-.3-2.7l-.3-2.7-.4-2.7c-.6-3.5-1.1-6.9-2-10.4-3.2-13.7-8.6-26.7-15.5-38.4-7.1-11.7-15.8-22-25.8-30.7-9.9-8.7-21-15.8-32.6-21-11.7-5.2-23.8-8.6-36-10.2-6.1-.8-12.1-1.1-18.2-1h-4.6l-2.3.1c-.8 0-1.7.1-2.4.1-3.1.3-6.2.7-9.2 1.3-12.1 2.3-23.6 6.6-33.6 12.7s-18.8 13.5-25.8 22c-7.1 8.5-12.6 17.9-16.4 27.6s-5.9 19.9-6.5 29.6c-.1 2.4-.1 4.9-.1 7.3v1.8l.1 2c.1 1.1.1 2.4.3 3.5.4 4.9 1.4 9.7 2.7 14.2 2.7 9.2 6.9 17.5 12.1 24.5 5.2 7.1 11.6 12.8 18.2 17.5 6.6 4.5 13.8 7.8 20.9 9.9s14.1 3 20.7 3h3.7c.5 0 .8 0 1.3-.1.7 0 1.4-.1 2.1-.1.1 0 .4 0 .6-.1l.7-.1c.4 0 .8-.1 1.3-.1.8-.1 1.6-.3 2.4-.4s1.6-.3 2.3-.6c1.6-.3 3-.8 4.4-1.3 2.8-1 5.6-2.1 8-3.4 2.5-1.3 4.8-2.8 7.1-4.2.6-.4 1.3-.8 1.8-1.4 2.3-1.8 2.7-5.2.8-7.5-1.6-2-4.4-2.5-6.6-1.3-.6.3-1.1.6-1.7.8-2 1-3.9 1.8-6.1 2.5-2.1.7-4.4 1.3-6.6 1.7-1.1.1-2.3.3-3.5.4-.6 0-1.1.1-1.8.1h-3.4c-.7 0-1.4 0-2.1-.1h-.8c-.3 0-.7 0-1-.1-.7-.1-1.3-.1-2-.3-5.2-.7-10.4-2.3-15.4-4.5-5.1-2.3-9.9-5.4-14.2-9.3s-8.2-8.6-11.1-14c-3-5.4-5.1-11.3-6.1-17.5-.4-3.1-.7-6.3-.6-9.5 0-.8.1-1.7.1-2.5v-1.1c0-.4.1-.8.1-1.3.1-1.7.4-3.4.7-5.1 2.4-13.5 9.2-26.8 19.6-36.8 2.7-2.5 5.5-4.8 8.5-6.9s6.2-3.9 9.6-5.5 6.8-2.8 10.4-3.8c3.5-1 7.2-1.6 11-2 1.8-.1 3.7-.3 5.6-.3h4.4l1.6.1c4.1.3 8 .8 12 1.8 7.9 1.7 15.7 4.7 22.8 8.6 14.4 8 26.7 20.5 34.1 35.4 3.8 7.5 6.5 15.5 7.8 23.8.3 2.1.6 4.2.7 6.3l.1 1.6.1 1.6v6.2c0 1-.1 2.7-.1 3.7-.1 2.3-.4 4.7-.7 6.9-.3 2.3-.7 4.5-1.1 6.8s-1 4.5-1.6 6.6c-1.1 4.4-2.5 8.7-4.2 13.1-3.4 8.5-7.9 16.6-13.3 24.1-10.9 15-25.7 27.1-42.6 34.8-8.5 3.8-17.3 6.6-26.5 8-4.5.8-9.2 1.3-13.8 1.4h-7c-2.5 0-4.9-.1-7.5-.4-9.9-.7-19.6-2.5-29.2-5.2-9.5-2.7-18.6-6.5-27.4-11-17.3-9.3-33-22-45.1-37.4-6.1-7.6-11.4-15.9-15.8-24.5s-7.9-17.8-10.4-26.9c-2.5-9.3-4.1-18.8-4.8-28.4l-.1-1.8v-12.2c.1-4.7.6-9.6 1.1-14.4.6-4.8 1.4-9.7 2.4-14.5s2.1-9.6 3.5-14.4c2.7-9.5 6.1-18.6 10-27.2 8-17.2 18.5-32.6 31-44.9 3.1-3.1 6.3-5.9 9.7-8.7 3.4-2.7 6.9-5.2 10.6-7.6 3.5-2.4 7.3-4.5 11.1-6.5 1.8-1 3.8-2 5.8-2.8 1-.4 2-.8 3-1.3 1-.4 2-.8 3-1.3 3.9-1.7 8-3.1 12.3-4.4 1-.3 2.1-.6 3.1-1 1-.3 2.1-.6 3.1-.8 2.1-.6 4.2-1.1 6.3-1.6 1-.3 2.1-.4 3.2-.7s2.1-.4 3.2-.7c1.1-.1 2.1-.4 3.2-.6l1.6-.3 1.7-.3c1.1-.1 2.1-.3 3.2-.4 1.3-.1 2.4-.3 3.7-.4 1-.1 2.7-.3 3.7-.4.7-.1 1.6-.1 2.3-.3l1.6-.1.7-.1h.8c1.3-.1 2.4-.1 3.7-.3l1.8-.1h1.3c1 0 2.1-.1 3.1-.1 4.1-.1 8.3-.1 12.4 0 8.2.3 16.2 1.3 24 2.7 15.7 3 30.3 7.9 43.7 14.5 13.4 6.5 25.2 14.5 35.7 23.3.7.6 1.3 1.1 2 1.7.6.6 1.3 1.1 1.8 1.7 1.3 1.1 2.4 2.3 3.7 3.4s2.4 2.3 3.5 3.4 2.3 2.3 3.4 3.5c4.4 4.7 8.5 9.3 12.1 14.1 7.3 9.5 13.3 19 17.9 28.1.3.6.6 1.1.8 1.7.3.6.6 1.1.8 1.7.6 1.1 1.1 2.3 1.6 3.4.6 1.1 1 2.1 1.6 3.2.4 1.1 1 2.1 1.4 3.2 1.7 4.2 3.4 8.3 4.7 12.1 2.1 6.2 3.7 11.7 4.9 16.5.4 2 2.3 3.2 4.2 3 2.1-.1 3.7-1.8 3.7-3.9.4-5.4.2-11.4-.5-18.3" style="fill:url(#a)"/></svg>