<svg xmlns="http://www.w3.org/2000/svg" viewBox="0 0 373.46 377.76"><path d="M341.1 122.44c-16.59-28.61-37.84-53.88-62.09-74.04l-.46-.38c-4.83-4-9.77-7.81-14.82-11.38C229.81 12.67 192.7 0 156.4 0 110.29 0 68.52 24.6 38.78 69.28-3.05 132.1-11.97 220.16 16.56 288.4c21.41 51.21 77 84.43 148.69 88.87 5.22.32 10.48.48 15.73.48 33.19 0 66.7-6.39 95.83-18.41 37.05-15.29 65.41-38.69 82-67.68 24.64-43.05 17.85-107.89-17.72-169.23Zm-167.56 9.61c16.31 0 32.55 6.68 44.23 19.78 10.53 11.81 15.83 27.01 14.93 42.8-.88 15.48-7.64 29.71-19.03 40.19l-1.37 1.22c-20.12 17.41-48.83 18.87-70.36 5.28-4.91-3.46-9.62-7.66-14.06-12.65a48 48 0 0 1-3.22-4.04 58.7 58.7 0 0 1-7.85-16.51c-.1-.36-.21-.71-.3-1.07a1 1 0 0 0-.04-.14c-5.24-20.41.74-44.18 17.09-59.28l1.25-1.15c11.16-9.67 24.96-14.43 38.73-14.43M156.4 21.75c31.78 0 64.55 11.29 94.77 32.66 4.64 3.28 9.17 6.78 13.61 10.45l7.28 6.58c55.73 51.82 73.16 102.36 68.8 154.66-2.86 34.34-24.74 61.76-56.1 83-29.86 20.22-75.54 26.01-108.18 22.51-32.05-3.43-65.27-16.35-86.72-45.41-17.74-24.04-23.01-49.86-20.61-77.56 2.39-27.56 13.45-53.33 31.39-71.26 10.06-10.06 27.24-22.69 54.67-25-12.84 2.95-25.13 9.07-35.64 18.44-21.29 18.99-30.15 46.78-26.04 73.07 1.76 12.01 6.22 23.58 13.47 33.59 1.84 2.64 3.84 5.22 6.04 7.68a80.5 80.5 0 0 0 17.61 14.81c31.35 21.18 70.41 19.51 108.55-5.78 20.78-13.78 34.83-37.67 38.53-65.56 4.49-33.78-6.35-68.43-29.75-95.06-25.45-28.96-60.67-46.1-96.64-47.02-33.44-.88-64.37 12.31-89.46 38.08a196 196 0 0 0-20.91 25.48c4.51-10.06 9.79-19.7 15.82-28.77 25.58-38.42 60.92-59.58 99.51-59.58Z" style="fill:#fd6f00"/></svg>