<svg xmlns="http://www.w3.org/2000/svg" viewBox="25.15 -3.85 449.7 512.2"><style>.st0{fill:none}.st1{fill:#231f20}.st2{fill:#67cfe3}.st3{fill:#dfcaa3}</style><path d="M274.853 195.985c-23.21 0-42.027 18.817-42.027 42.028s18.816 42.027 42.027 42.027c23.21 0 42.027-18.816 42.027-42.027s-18.816-42.028-42.027-42.028m-5.68 69.289c-7.318 0-13.251-5.933-13.251-13.252s5.933-13.252 13.252-13.252c7.318 0 13.252 5.933 13.252 13.252s-5.934 13.252-13.252 13.252zm-1.832 30.332c-6.783-2.773-15.704-4.225-26.515-4.316l-4.746-.04c-2.79-5.183-11.735-8.03-21.926-6.765 10.19-1.265 19.136 1.582 21.925 6.764a7.3 7.3 0 0 1 .896 3.616c-.087 6.223-8.003 12.439-18.768 14.654a41 41 0 0 1-.804.157q-.364.069-.73.132c-11.605 1.927-21.962-1.483-24.075-7.684l-3.892 1.315c-2.416.816-23.664 8.403-25.649 23.284-.66 4.949.675 9.488 3.86 13.125 3.833 4.379 10.096 6.993 16.753 6.993 3.602 0 6.946-.796 9.668-2.3 1.699-.939 3.513-2.076 5.434-3.28 6.576-4.12 14.76-9.247 24.674-10.552.887-.117 2.365-.176 4.392-.176 2.209 0 4.861.068 7.669.14 3.241.084 6.914.179 10.477.179 10.495 0 16.8-.816 21.08-2.728 9.065-4.051 13.566-11.942 12.038-21.107-.763-4.57-4.94-8.623-11.761-11.411m-2.893 26.664c-3.937 1.758-11.067 2.17-18.464 2.17-6.508 0-13.221-.319-18.146-.319-2.132 0-3.929.06-5.229.231-14.387 1.893-25.178 10.601-32.372 14.577-1.815 1.003-4.135 1.5-6.567 1.5-7.208 0-15.39-4.366-14.257-12.859 1.514-11.358 21.345-18.057 21.345-18.057 2.547 3.147 6.879 6.77 17.889 6.77 2.9 0 6.262-.251 10.176-.829 20.692-3.05 21.949-17.753 21.949-17.753 22.338.19 31.376 6.594 32.005 10.37.568 3.408.568 10.223-8.33 14.199z" class="st0"/><path d="M216.328 337.591c-5.387 2.072-10.163 5.023-14.296 7.61l-.186.117c.952 4.416 4.141 14.599 12.995 11.961 4.58-1.364 4.671-6.963 3.681-12.077-.587-3.038-1.556-5.905-2.194-7.61zm23.091-2.301-2.474-.062c-2.792-.072-5.427-.14-7.6-.14-2.38 0-3.512.083-4.043.153-1.08.142-2.14.34-3.181.574.375 2.361 1.048 5.996 2.058 9.387 1.19 3.998 2.851 7.656 5.05 8.48 2.31.867 11.159 1.642 11.03-8.48a19 19 0 0 0-.05-1.174c-.304-4.057-.571-6.829-.79-8.738m-65.029-37.338c7.566-7.6 12.244-18.078 12.244-29.65 0-23.21-18.816-42.027-42.027-42.027s-42.028 18.817-42.028 42.028 18.816 42.027 42.028 42.027a41.8 41.8 0 0 0 21.27-5.784 42.2 42.2 0 0 0 8.512-6.594zm-33.57-1.631c-7.319 0-13.252-5.933-13.252-13.252s5.933-13.252 13.252-13.252 13.252 5.933 13.252 13.252-5.933 13.252-13.252 13.252" class="st0"/><path d="M142.819 451.05c-7.194 1.645-28.364 13.155-46.657 16.649s-34.119 5.344-39.668 7.399-9.866 6.166 1.028 10.277 63.716 5.55 68.443 0-3.26-7.955-14.799-7.81c-8.221.102-7.213-2.763-7.193-3.084 0 0 .514-3.596 13.154-5.344 12.62-1.744 68.443-6.988 67.416-12.948s-34.53-6.783-41.724-5.139" class="st1"/><ellipse cx="106.593" cy="495.035" class="st1" rx="10.945" ry="3.186" transform="rotate(-12.278 106.593 495.035)"/><ellipse cx="81.261" cy="493.596" class="st1" rx="11.51" ry="3.083" transform="rotate(-4.551 81.26 493.596)"/><ellipse cx="61.016" cy="491.078" class="st1" rx="7.708" ry="2.415" transform="rotate(-7.758 61.016 491.078)"/><ellipse cx="46.063" cy="488.766" class="st1" rx="7.451" ry="1.953" transform="rotate(-8.26 46.063 488.766)"/><ellipse cx="42.672" cy="484.553" class="st1" rx="7.451" ry="1.953" transform="rotate(-8.26 42.672 484.552)"/><ellipse cx="41.785" cy="479.788" class="st1" rx="6.477" ry="1.697" transform="rotate(-8.261 41.785 479.788)"/><path d="M252.575 456.805c-12.538.617-40.902-.822-44.807 5.755s11.51 9.044 35.764 6.988c24.253-2.055 58.577-4.727 60.016-12.126 1.439-7.4-6.372-5.96-7.194-10.688-.822-4.727 8.633-4.727 10.482-11.716s-12.743-6.166-25.692-6.166-34.53 1.234-36.585 8.016c-2.055 6.783 9.866 6.783 18.293 8.427 8.427 1.645 5.96 4.728 5.96 4.728-.41 4.316-3.7 6.166-16.237 6.782" class="st1"/><ellipse cx="219.047" cy="474.841" class="st1" rx="10.868" ry="3.545"/><ellipse cx="247.026" cy="474.07" class="st1" rx="7.245" ry="3.237"/><ellipse cx="269.609" cy="471.758" class="st1" rx="7.939" ry="2.621"/><ellipse cx="287.028" cy="468.829" class="st1" rx="5.781" ry="2.775"/><ellipse cx="302.058" cy="465.669" class="st1" rx="5.858" ry="2.698"/><path d="M46.47 389.879c0 3.504 7.645 6.818 21.222 9.767-.967-7.032-.37-14.125.537-19.65-13.913 2.978-21.758 6.332-21.758 9.883zm400.637-9.081a32 32 0 0 1-.66 1.683 30.6 30.6 0 0 1-7.122 10.25c-6.133 5.808-11.51 9.289-16.312 10.558 26.534-3.73 42.285-8.374 42.285-13.41 0-3.235-6.515-6.308-18.19-9.081z" class="st1"/><path d="M401.72 373.427c-1.687-12.369-6.963-17.917-11.617-22.813-4.334-4.56-8.429-8.865-7.11-16.771 1.218-7.309 7.033-11.806 16.533-12.975-5.77-39.002-14.225-88.207-25.095-130.183-5.428-20.964-14.013-35.525-25.526-45.206-13.176 6.74-29.025 14.15-46.717 21.821a1224 1224 0 0 1-38.532 15.908c-10.104 10.84-21.144 21.524-27.91 24.569-4.817 2.167-9.098 3.03-12.818 3.03-8.055 0-13.493-4.04-16.126-7.634-3.052.807-5.49 1.33-7.147 1.505-1.983.208-4.906.456-8.56.72 1.404 3.677.845 7.982-1.848 11.226-2.962 3.569-7.735 5.361-14.5 5.361-9.734 0-23.592-3.712-42.122-11.197-2.726-1.1-5.23-2.08-7.528-2.951q-2.13.011-4.256.012h-.013c-17.703 0-31.538-.557-42.384-1.445-11.879 24.59-6.717 51.863-2.369 74.393 4.167 21.591 18.623 60.008 32.032 93.016a2069 2069 0 0 0 13.91 33.364c36.3 3.211 82.84 5.14 133.585 5.14 60.39 0 114.785-2.736 153.09-7.108-2.79-11.486-6.326-27.467-6.934-31.532zM102.58 268.303c0-23.211 18.815-42.028 42.027-42.028s42.027 18.817 42.027 42.028c0 11.571-4.678 22.05-12.245 29.65a42.2 42.2 0 0 1-8.512 6.593 41.8 41.8 0 0 1-21.27 5.784c-23.212 0-42.028-18.816-42.028-42.027zm112.261 88.976c-8.854 2.638-12.043-7.545-12.995-11.96.06-.04.125-.08.186-.117 4.133-2.588 8.909-5.54 14.296-7.61.638 1.705 1.607 4.572 2.194 7.61.99 5.114.899 10.713-3.68 12.077zm14.388-3.597c-2.199-.824-3.86-4.482-5.05-8.48-1.01-3.39-1.683-7.026-2.058-9.387 1.041-.235 2.1-.432 3.18-.574.532-.07 1.664-.153 4.043-.153 2.174 0 4.81.068 7.6.14.801.02 1.63.042 2.475.062.219 1.91.486 4.681.79 8.738.03.408.045.796.05 1.174.129 10.122-8.72 9.347-11.03 8.48m37.834-25.558c-4.28 1.912-10.584 2.728-21.08 2.728-3.562 0-7.235-.095-10.476-.178-2.808-.073-5.46-.14-7.669-.14-2.027 0-3.505.058-4.392.175-9.914 1.305-18.098 6.432-24.674 10.553-1.92 1.203-3.735 2.34-5.434 3.279-2.722 1.504-6.066 2.3-9.668 2.3-6.657 0-12.92-2.614-16.753-6.993-3.185-3.637-4.52-8.176-3.86-13.125 1.985-14.88 23.233-22.468 25.65-23.284l3.89-1.315a7.3 7.3 0 0 1-.295-1.16c-1.15-6.927 7.896-14.2 20.205-16.244a42 42 0 0 1 1.647-.235c10.19-1.265 19.137 1.582 21.926 6.764l4.746.04c10.81.092 19.732 1.544 26.515 4.317 6.822 2.788 10.998 6.84 11.76 11.411 1.529 9.165-2.972 17.056-12.038 21.107m7.79-48.084c-23.21 0-42.027-18.816-42.027-42.027s18.816-42.028 42.027-42.028c23.21 0 42.027 18.817 42.027 42.028s-18.816 42.027-42.027 42.027" class="st2"/><path d="m328.68 96.41-.314-.548-.415-.526c-.39-.626-1.93-1.593-2.05-1.603l-.157-.084-.08-.042-.3-.13-.026-.01-.053-.02-.427-.15-.859-.294c-.565-.21-1.21-.283-1.82-.41-.62-.11-1.277-.106-1.917-.147-.645.023-1.301.067-1.942.159-2.582.455-4.86 1.705-6.595 3.192-1.762 1.484-3.083 3.184-4.155 4.87-2.13 3.39-3.327 6.77-4.119 9.685a40.4 40.4 0 0 0-1.242 7.155c-.09.867-.083 1.565-.102 2.031-.007.47.007.723.007.723l1.316-2.39c.836-1.504 2.008-3.639 3.453-6.096 1.456-2.44 3.194-5.238 5.302-7.774 1.056-1.257 2.215-2.429 3.438-3.335 1.233-.895 2.494-1.509 3.75-1.71q.474-.058.952-.097c.325.035.644-.002.976.058.332.081.662.077 1.004.188l.806.218.255.116q-.02-.014-.034-.031a.1.1 0 0 0 .043.008q.012.022.028.04l.034.016.073.035-.035-.004a.3.3 0 0 1-.049-.016c.04.025.076.085.11.165.174.31.301.924.363 1.603.08 1.402-.09 3.02-.353 4.552a67 67 0 0 1-.906 4.422c-.656 2.776-1.282 5.138-1.695 6.812-.43 1.668-.657 2.652-.657 2.652s.72-.71 1.804-2.081a43 43 0 0 0 4.026-6.03 37 37 0 0 0 2.1-4.476c.631-1.675 1.211-3.521 1.392-5.76.07-1.135.037-2.396-.448-3.842a5.4 5.4 0 0 0-.482-1.094"/><path d="m323.403 99.457-.037-.018c.015.014.026.033.045.043l.015.005-.008-.009z"/><path d="M68.017 176.726h.577a97 97 0 0 1-.577-1.04zm5.148-16.286a33 33 0 0 0 3.542 5.618c.474.64.911 1.103 1.188 1.428.286.32.452.481.452.481s-.168-.908-.484-2.443c-.298-1.539-.754-3.712-1.168-6.241-.204-1.262-.391-2.618-.484-3.99-.075-1.35-.075-2.793.221-3.854.148-.526.342-.934.53-1.14.182-.186.33-.247.595-.341l.197-.04.32-.065c.092-.014-.025.052-.034.06a.2.2 0 0 1-.108.026.2.2 0 0 1-.052-.009l.04.023c.057.025.11.029.175.036.31.116.784.367 1.281.744 1.036.75 2.108 1.916 3.135 3.098a79 79 0 0 1 2.951 3.757c1.878 2.554 3.615 5.051 5.141 7.195a179 179 0 0 0 3.808 5.195 58 58 0 0 0 1.542 1.965l-.074-.656c-.067-.42-.133-1.054-.297-1.828a49 49 0 0 0-1.643-6.35 53 53 0 0 0-3.646-8.567c-.824-1.517-1.749-3.07-2.88-4.583-1.13-1.524-2.415-3.022-4.198-4.394-.925-.66-1.991-1.298-3.36-1.71a14 14 0 0 0-1.116-.214l-.282-.038-.38-.005q-.382.002-.763.034c-.225.02-.564.057-.685.088l-.315.085-.315.086-.417.122-.122.054-.245.11c-1.295.531-2.563 1.597-3.283 2.834-.738 1.228-1.026 2.466-1.128 3.565-.21 2.216.224 3.994.662 5.613a27 27 0 0 0 1.699 4.25z" class="st1"/><path d="M92.545 418.614c9.853 0 16.79-5.363 21.66-12.324-5.572-12.92-14.741-34.693-23.434-57.607-2.354 2.002-5.073 5.025-8.015 9.585-7.324 11.352-13.356 37.765-5.759 51.706 3.167 5.815 8.254 8.64 15.548 8.64m347.847-65.447c-5.776-14.944-18.059-25.552-29.869-25.799l-.423-.036c-.018-.004-2.288-.342-5.337-.342-6.433 0-14.329 1.373-15.419 7.911-.756 4.537 1.228 6.861 5.425 11.276 4.797 5.044 11.364 11.952 13.331 26.38 2.253 16.523 6.288 24.903 11.99 24.904 2.663 0 7.519-1.596 15.546-9.2 9.886-9.366 8.939-24.269 4.756-35.094" class="st3"/><circle cx="140.82" cy="283.069" r="13.252" class="st1"/><circle cx="269.174" cy="252.022" r="13.252" class="st1"/><path fill="#648c1a" d="M104.872 135.026c10.341 2.791 22.033 4.206 34.752 4.206 20.436 0 63.826-3.97 124.812-30.561l1.373-.599c-.191-3.097.06-6.493.84-10.048 1.354-6.15 4.033-11.363 7.322-14.816-.635-2.359-1.157-4.082-1.52-4.957-7.038-3.752-65.056-25.363-95.313-25.363-3.023 0-5.663.225-7.846.67-26.817 5.474-67.563 52.092-69.026 58.701-.44 2.86-.306 11.836.015 21.528zm-.522 66.202c-1.466-.306-2.287-.4-2.624-.428-5.591.345-10.717-3.565-11.75-9.236a11 11 0 0 1-.164-1.717c-3.042 1.726-6.086 3.592-8.935 5.564l-5.066 3.508-3.728-4.907c-1.123-1.48-6.309-8.476-11.088-17.68-8.976 4.235-15.988 8.864-17.7 13.25-.324.832-.193 1.28.143 1.772 1.465 2.145 10.155 8.701 60.911 9.874zm105.388-14.372c4.457-2.837 10.15-2.15 13.813 1.336.565-.089 1.524-.33 2.946-.97 5.557-2.64 25.598-24.037 40.824-42.36a11 11 0 0 1 1.811-1.731c-34.795 15.035-83.414 31.467-129.707 31.467-7.44 0-14.505-.434-21.063-1.283l1.016 2.993-5.789 2.217c-.042.016-1.037.4-2.702 1.092 7.452 1.741 17.525 5.163 30.177 10.273 23.158 9.352 32.014 9.71 34.23 9.577 3.15-1.668 6.954-1.733 10.211-.142 6.007-.385 10.68-.758 13.475-1.052 1.271-.134 3.16-.53 5.563-1.15a11.27 11.27 0 0 1 5.195-10.267m134.793-68.77c-1.686 10.05-4.927 21.082-7.076 24.092l-2.017 2.82c9.132-4.446 17.278-8.663 24.193-12.54 24.043-13.481 27.032-19.384 27.376-20.873.225-.975-.014-1.276-.117-1.404-.261-.329-1.95-1.967-9.544-1.967-8.298 0-19.916 1.898-32.04 4.529a118 118 0 0 1-.775 5.343m-9.374 27.049-3.467-.282c-.063-.005-6.429-.516-15.061-.516-8.968 0-20.793.542-30.496 2.839 1.853 3.851 1.433 8.59-1.477 12.091a632 632 0 0 1-11.206 13.104 1202 1202 0 0 0 26.176-10.979c12.961-5.62 24.91-11.092 35.53-16.257z"/><path d="M267.01 114.574c-24.37 10.625-77.765 31.098-127.386 31.098-12.563 0-24.883-1.312-36.43-4.429a103 103 0 0 1 3.58 5.843c4.291 7.539 7.43 14.986 9.14 19.381 6 .938 13.83 1.691 23.511 1.691 28.503 0 73.052-6.524 134.181-34.037.96-3.015 2.238-6.79 3.822-10.985-.124.006-.247.027-.371.027-.65 0-1.3-.07-1.93-.208-3.794-.834-6.602-3.928-8.117-8.381" class="st3"/><path d="M68.594 176.726c4.402 7.838 8.618 13.39 8.618 13.39 14.766-10.222 34.076-17.605 34.076-17.605s-.496-1.457-1.426-3.837a146 146 0 0 0-1.76-4.311 161 161 0 0 0-2.005-4.504 150 150 0 0 0-1.055-2.222 136 136 0 0 0-2.482-4.863c-1.49-2.772-3.144-5.594-4.946-8.295-5.927-8.887-13.44-16.448-21.853-16.446-2.652 0-5.396.753-8.204 2.45-15.458 9.347-7.48 30.75.46 45.204q.288.525.577 1.04zm2.21-26.15c.102-1.099.39-2.337 1.128-3.565.72-1.237 1.988-2.303 3.283-2.834l.245-.11.122-.054.417-.122.315-.086.315-.085c.12-.03.46-.068.685-.088q.382-.032.763-.034l.38.005.282.038c.373.058.753.128 1.116.214 1.369.412 2.435 1.05 3.36 1.71 1.783 1.372 3.067 2.87 4.197 4.394 1.132 1.513 2.057 3.066 2.881 4.583a53 53 0 0 1 3.646 8.566 49 49 0 0 1 1.643 6.35c.164.775.23 1.408.297 1.829l.074.656s-.592-.71-1.542-1.965a179 179 0 0 1-3.808-5.195c-1.526-2.144-3.263-4.64-5.141-7.195a79 79 0 0 0-2.951-3.757c-1.027-1.182-2.1-2.347-3.135-3.098-.497-.377-.97-.628-1.28-.744-.066-.007-.119-.01-.175-.036l-.04-.023a.2.2 0 0 0 .051.01.2.2 0 0 0 .108-.028c.009-.007.126-.073.034-.059l-.32.065-.197.04c-.264.094-.413.155-.595.34-.188.207-.382.615-.53 1.141-.296 1.06-.296 2.505-.22 3.853.092 1.373.279 2.729.483 3.99.414 2.53.87 4.703 1.168 6.242.316 1.535.484 2.443.484 2.443s-.166-.16-.452-.48c-.277-.326-.714-.79-1.188-1.429a33 33 0 0 1-3.542-5.618 27 27 0 0 1-1.699-4.251c-.438-1.62-.873-3.397-.662-5.613m4.96-25.763v3.22z" class="st2"/><path d="M282.872 78.738a9 9 0 0 1 1.93.208c4.725 1.04 7.918 5.588 8.992 11.897 9.009-12.652 18.833-19.05 29.334-19.05 4.426 0 8.311 1.044 11.57 3.059 5.54-6.738 9.065-11.385 9.065-11.385-4.165.757-12.874 1.893-12.874 1.893 32.94-12.116 30.29-45.056 30.29-45.056 0 5.68-17.038 19.31-17.038 19.31.758-4.922-1.893-11.359-1.893-11.359.758 6.437-19.688 23.096-19.688 23.096 1.514-3.029.378-8.33.378-8.33-1.136 6.058-10.222 8.33-10.222 8.33 5.679-6.815 16.28-42.784 8.33-45.056-7.952-2.272-18.932 23.475-18.932 23.475-.379-6.058-3.786-6.058-3.786-6.058 1.514 18.93-13.63 34.076-13.63 34.076-1.136-3.786-7.195-5.68-7.195-5.68 1.945 4.214-.27 23.395-.95 28.836 2.01-1.42 4.158-2.206 6.319-2.206" class="st3"/><path d="m274.777 115.57.026.025q.243.267.503.473c.063.05.13.083.194.128.125.087.25.176.38.241q.307.156.629.228h.001a3 3 0 0 0 1.057.02c.992-.153 2.083-.77 3.175-1.787a173 173 0 0 1 3.22-7.09 144 144 0 0 1 3.213-6.276c1.617-8.56-.56-15.593-3.757-16.296a2.5 2.5 0 0 0-.546-.059c-3.286 0-8.061 5.718-9.933 14.23-1.357 6.178-.73 11.668.871 14.736l.006.012c.29.554.613 1.03.96 1.415z"/><path d="M323.375 99.416a.1.1 0 0 1-.043-.008q.015.016.034.031l.037.018q-.016-.02-.028-.041m.135.091-.073-.035-.034-.015.015.021.008.009a.3.3 0 0 0 .05.016z" class="st2"/><path d="M323.128 78.234c-18.752 0-32.548 28.226-39.758 47.402a215 215 0 0 0-3.516 10.104 189 189 0 0 0-1.614 5.282c.906.184 1.792.492 2.645.904 10.926-3.27 25.066-4.028 35.744-4.028 9.036 0 15.586.537 15.586.537 2.84-3.976 19.31-60.201-9.087-60.201m6.482 23.111c-.18 2.24-.76 4.086-1.393 5.76a37 37 0 0 1-2.099 4.477 43 43 0 0 1-4.026 6.03c-1.085 1.37-1.804 2.08-1.804 2.08s.228-.983.657-2.651c.413-1.674 1.04-4.036 1.695-6.812.325-1.386.652-2.88.906-4.422.263-1.532.432-3.15.353-4.552-.062-.679-.19-1.293-.363-1.603-.034-.08-.07-.14-.11-.165l-.015-.005c-.02-.01-.03-.029-.045-.043l-.255-.116-.806-.218c-.342-.111-.672-.107-1.004-.188-.332-.06-.651-.023-.976-.058-.32.028-.635.057-.952.096-1.256.202-2.517.816-3.75 1.711-1.223.906-2.382 2.078-3.438 3.335-2.108 2.536-3.846 5.333-5.302 7.774-1.445 2.457-2.617 4.592-3.453 6.096l-1.316 2.39s-.014-.253-.007-.723c.019-.466.013-1.164.102-2.031a40.4 40.4 0 0 1 1.242-7.155c.792-2.916 1.99-6.296 4.119-9.686 1.072-1.685 2.393-3.385 4.155-4.869 1.735-1.487 4.013-2.737 6.595-3.192a19 19 0 0 1 1.942-.159c.64.04 1.297.038 1.916.147.61.127 1.256.2 1.821.41l.86.294.426.15.053.02.026.01.3.13.08.042.158.084c.12.01 1.659.977 2.05 1.603l.414.526.314.548c.22.373.366.736.482 1.094.485 1.446.518 2.707.448 3.841" class="st2"/><path d="M222.928 203.992c3.066 0 6.438-.817 10.022-2.43 7.47-3.362 25.709-21.674 46.465-46.65a4.42 4.42 0 0 0 1.009-3.257 4.42 4.42 0 0 0-1.588-3.016 4.4 4.4 0 0 0-2.84-1.029 4.45 4.45 0 0 0-3.434 1.608c-9.036 10.874-34.4 40.007-43.138 44.16l-.13.06c-1.7.765-3.277 1.265-4.685 1.486l-3.32.522-2.435-2.317a4.5 4.5 0 0 0-3.078-1.221 4.43 4.43 0 0 0-2.38.699 4.42 4.42 0 0 0-1.957 2.79 4.43 4.43 0 0 0 .592 3.358c.34.536 3.544 5.237 10.897 5.237m-42.348.98c-.731 0-1.455.18-2.094.518l-1.308.693-1.479.087c-.285.017-.637.03-1.065.03-4.158 0-14.381-1.31-36.122-10.09-23.975-9.683-33.472-11.13-37-11.13-.67 0-1.065.055-1.245.087a4.43 4.43 0 0 0-2.865 1.847 4.42 4.42 0 0 0-.72 3.329c.38 2.088 2.254 3.663 4.358 3.663q.132 0 .266-.008l.493-.031.491.04c2.644.22 11.14 1.68 32.887 10.462 17.58 7.1 30.894 10.701 39.57 10.701 4.545 0 7.659-.975 9.256-2.9a4.42 4.42 0 0 0 1.007-3.255 4.42 4.42 0 0 0-1.588-3.015 4.4 4.4 0 0 0-2.842-1.028"/><path d="M240.772 297.701s-1.257 14.703-21.949 17.753c-3.914.578-7.277.829-10.176.829-11.01 0-15.342-3.623-17.889-6.77 0 0-19.83 6.699-21.345 18.057-1.133 8.493 7.05 12.859 14.257 12.859 2.432 0 4.752-.497 6.567-1.5 7.194-3.976 17.985-12.684 32.372-14.577 1.3-.17 3.097-.23 5.23-.23 4.924 0 11.637.318 18.145.318 7.397 0 14.527-.412 18.464-2.17 8.897-3.976 8.897-10.791 8.33-14.199-.63-3.776-9.668-10.18-32.006-10.37" class="st3"/><path d="M216.672 309.808c.246-.04.488-.087.73-.132q.405-.075.805-.157c10.765-2.215 18.681-8.431 18.768-14.654a7.3 7.3 0 0 0-.896-3.616c-2.789-5.182-11.734-8.03-21.925-6.764a42 42 0 0 0-1.647.235c-12.31 2.044-21.355 9.317-20.205 16.245q.1.595.296 1.16c2.113 6.2 12.47 9.61 24.074 7.683" class="st1"/></svg>