<svg xmlns="http://www.w3.org/2000/svg" xmlns:inkscape="https://www.inkscape.org/namespaces/inkscape" xmlns:sodipodi="https://sodipodi.sourceforge.net/DTD/sodipodi-0.dtd" inkscape:version="0.48.0 r9654" xml:space="preserve" id="svg2" x="0" y="0" version="1.1" viewBox="70.88 0.24 370.25 511.73"><style>.st0{fill:#d33833}.st0,.st3,.st4{fill-rule:evenodd;clip-rule:evenodd}.st3{fill:#f0d6b7}.st4{fill:#335061}.st6{fill:#dcd9d8}.st6,.st7{fill-rule:evenodd;clip-rule:evenodd}.st7,.st8{fill:#f7e4cd}.st9{fill:#49728b}.st10,.st9{fill-rule:evenodd;clip-rule:evenodd}.st10,.st11{fill:#fff}.st12{fill:none;stroke:#d33833;stroke-width:2.5;stroke-miterlimit:5}.st13{fill:#ef3d3a}.st13,.st14,.st15,.st16{fill-rule:evenodd;clip-rule:evenodd}.st14{fill:#231f20}.st15{fill:#81b0c4}.st16{fill:#1d1919}</style><sodipodi:namedview inkscape:current-layer="g10" inkscape:cx="-65.859" inkscape:cy="172.531" inkscape:pageopacity="0" inkscape:pageshadow="2" inkscape:window-height="844" inkscape:window-maximized="0" inkscape:window-width="1500" inkscape:window-x="2189" inkscape:window-y="496" inkscape:zoom="1" id="namedview4" bordercolor="#666666" borderopacity="1" gridtolerance="10" guidetolerance="10" objecttolerance="10" pagecolor="#ffffff" showgrid="false"/><g inkscape:groupmode="layer" inkscape:label="ink_ext_XXXXXX" id="g10" transform="matrix(1.25 0 0 -1.25 0 312)"><g id="g3393"><path inkscape:connector-curvature="0" id="path22" d="M348.5 52.2c0-81.2-64.3-146.9-143.7-146.9-79.3 0-143.7 65.8-143.7 146.9 0 81.2 64.3 146.9 143.7 146.9 79.3.1 143.7-65.7 143.7-146.9" class="st0"/><path inkscape:connector-curvature="0" id="path24" d="M67 15.8S56.6 169 197.8 173.4l-9.9 16.4-76.6-25.7L89.4 139l-19.2-36.7-10.9-42.7 3.3-28.5" style="fill:#ef3d3a"/><path inkscape:connector-curvature="0" id="path26" d="M106.4 152.5C81.2 126.7 65.6 91.1 65.6 51.7s15.6-75 40.8-100.8 60-41.7 98.4-41.7 73.2 15.9 98.4 41.7S344 12.3 344 51.7s-15.6 75-40.8 100.8-60 41.7-98.4 41.7-73.2-16-98.4-41.7M100-55.3C73.2-27.9 56.7 9.9 56.7 51.7s16.6 79.6 43.3 107c26.8 27.4 63.9 44.4 104.8 44.4s78-17 104.8-44.4 43.4-65.3 43.3-107c0-41.8-16.6-79.6-43.3-107-26.8-27.4-63.9-44.4-104.8-44.4s-78 17-104.8 44.4" style="fill:#231f20"/><path inkscape:connector-curvature="0" id="path28" d="m265.3 51.4-21.9-3.3-29.6-3.3-19.2-.5-18.6.5-14.2 4.4-12.6 13.7-9.9 27.9-2.2 6-13.1 4.4-7.7 12.6-5.5 18.1 6 15.9 14.2 4.9 11.5-5.5 5.5-12 6.6 1.1 2.2 2.7-2.2 12.6-.5 15.9 3.3 21.9-.1 12.5 10 16 17.5 12.6 30.6 13.1 33.9-4.9 29.6-21.3 13.7-21.9 8.8-15.9 2.2-39.4-6.6-33.9L285 76l-11.5-15.9" class="st3"/><path inkscape:connector-curvature="0" id="path30" d="m246.7-43.3-78.3-3.3v-13.1l6.6-46-3.3-3.8L117-90.9l-3.8 6.6-5.5 61.8-12.6 37.2-2.7 8.8 43.8 30.1 13.7 5.5 12-14.8 10.4-9.3 12-3.8 5.5-1.6 6.6-28.5 4.9-6 12.6 4.4-8.8-17L252.7-40z" class="st4"/><path inkscape:connector-curvature="0" id="path32" d="m117 147.7 14.2 4.9 11.5-5.5 5.5-12 6.6 1.1 1.6 6.6-3.3 12.6 3.3 30.1-2.7 16.4 9.9 11.5 21.3 17-6 8.2-30.1-14.8-12.6-9.9-7.1-15.3-10.9-14.8-3.3-17.5z" style="fill-rule:evenodd;clip-rule:evenodd;fill:#6d6b6d"/><path inkscape:connector-curvature="0" id="path34" d="M139.4 199.2s8.2 20.2 41 30.1 1.6 7.1 1.6 7.1l-35.6-13.7-13.6-13.7-6-10.9z" class="st6"/><path inkscape:connector-curvature="0" id="path36" d="M123 151.6s-11.5 38.3 32.3 43.8l-1.6 6.6-30.1-7.1-8.8-28.5 2.2-18.6z" class="st6"/><path inkscape:connector-curvature="0" id="path38" d="m140.5 100.7 7.2 6.9s3.2-.4 3.8-4.2c.5-3.8 2.2-38.3 25.7-56.9 2.1-1.7-17.5 2.7-17.5 2.7l-17.5 27.4" class="st7"/><path inkscape:connector-curvature="0" id="path40" d="M241.2 111.1s1.3 16.6 5.7 15.3c4.5-1.3 4.5-5.7 4.5-5.7s-10.8-7.1-10.2-9.6" class="st7"/><path inkscape:connector-curvature="0" id="path42" d="M286.6 171.8s-9-1.9-9.9-9.9c-.8-7.9 9.9-1.6 11.5-1.1" class="st8"/><path inkscape:connector-curvature="0" id="path44" d="M220.4 171.3s-12-1.6-12-9.3 13.7-7.1 17.5-3.8" class="st8"/><path inkscape:connector-curvature="0" id="path46" d="M146 135.7s-20.8 12.6-23 .5c-2.2-12-7.1-20.8 3.3-33.4l-7.1 2.2-6.6 17-2.2 16.4 12.6 13.1 14.2-1.1 8.2-6.6z" class="st7"/><path inkscape:connector-curvature="0" id="path48" d="M155.8 170.2s9.3 48.2 56.4 57.5c38.7 7.7 59.1-1.6 66.8-10.4 0 0-34.5 41-67.3 28.5-32.8-12.6-56.9-35.6-56.4-50.3.9-25.3.5-25.3.5-25.3" class="st7"/><path inkscape:connector-curvature="0" id="path50" d="M282.8 211.8s-15.9.5-16.4-13.7c0 0 0-2.2 1.1-4.4 0 0 12.6 14.2 20.2 6.6" class="st7"/><path inkscape:connector-curvature="0" id="path52" d="M213.3 192.2s-2.7 21.8-21.4 9.1c-12-8.2-10.9-19.7-8.8-21.9 2.2-2.2 1.6-6.6 3.3-3.6s1.1 12.9 7.1 15.6c6.1 2.8 16 5.9 19.8.8" class="st7"/><path inkscape:connector-curvature="0" id="path54" d="m161.8 44.3-51.4-23s21.3-84.8 10.4-111.1l-7.7 2.7-.5 32.3L98.4 6.5l-6 17L146 59.6z" class="st9"/><path inkscape:connector-curvature="0" id="path56" d="m167.1-2.6 7.3-8.9v-32.8h-8.8s-1.1 23-1.1 25.7S165.6-6 165.6-6" class="st9"/><path inkscape:connector-curvature="0" id="path58" d="m167.3-49.3-24.6-1.1 7.1-4.9 17.5-2.7" class="st9"/><path inkscape:connector-curvature="0" id="path60" d="m251.6-43.8 20.2.5 4.9-50.3-20.7-2.8z" class="st4"/><path inkscape:connector-curvature="0" id="path62" d="m257.1-43.8 30.6 1.6s12.6 31.7 12.6 33.4 10.9 46 10.9 46l-24.6 25.7-4.9 4.4-13.1-13.1v-51z" class="st4"/><path inkscape:connector-curvature="0" id="path64" d="m270.7-40-19.2-3.8 2.7-15.3c7.1-3.3 19.2 5.5 19.2 5.5" class="st9"/><path inkscape:connector-curvature="0" id="path66" d="m271.3 55.8 38.3-28.5 1.1 13.1-29 26.8z" class="st9"/><path inkscape:connector-curvature="0" id="path68" d="m186.3-151.6-11.3 46-5.6 33.9-.9 25.2 51.3 2.7h31.9l-2.9-57.5 4.9-44.3-.5-8.2-41.6-3.3z" class="st10"/><path inkscape:connector-curvature="0" id="path70" d="M244.5-43.3s-2.7-56.9 5.5-97.4c0 0-16.4-10.4-40.5-13.1l46 1.6 5.5 3.3-6.6 89.7-1.7 19.2" class="st6"/><path inkscape:connector-curvature="0" id="path72" d="m277.7-89.2 21.3 6 40.5 2.2 6 18.6-10.9 32.3-12.6 1.6-17.5-5.5-16.8-8.2-8.9 1.6-7-2.7" class="st10"/><path inkscape:connector-curvature="0" id="path74" d="M277.3-78.3s14.2 6.6 16.4 6l-6 30.1 7.1 2.7s4.9-28.5 4.9-31.7c0 0 30.6-1.6 33.4-1.6 0 0 6.6 12.6 4.9 25.7l6-17.5.5-9.9-8.8-13.1-9.9-2.2-16.4.5-5.5 7.1-18.9-2.7-6-2.2" class="st6"/><path inkscape:connector-curvature="0" id="path76" d="m255.8-39.4-12 30.6-12.6 18.1s2.7 7.7 6.6 7.7h12.6l12-4.4-1.1-20.2z" class="st11"/><path inkscape:connector-curvature="0" id="path78" d="M258.2-29S242.9.6 242.9 4.9c0 0 2.7 6.6 6.6 4.9 3.8-1.6 12-6 12-6v10.4L242.8 18l-12.6-1.6L251.6-34l4.4-.5" class="st6"/><path inkscape:connector-curvature="0" id="path80" d="M191.2 43.2 176 44.8l-14.2 4.4v-4.9l7-7.7 21.9-9.9" class="st11"/><path inkscape:connector-curvature="0" id="path82" d="M166.8 41.6s17-7.1 22.4-5.5l.5-6.6-15.3 3.3-9.3 6.6z" class="st6"/><path inkscape:connector-curvature="0" id="path84" d="M277.6 15.1c-9.3.3-17.7 1.4-25 3.4.5 3-.4 6 .3 8.1 2 1.5 5.5 1.5 8.6 1.8-2.7 1.3-6.4 1.8-9.5 1.1-.1 2.1-1 3.4-1.6 5 5.2 1.9 17.5 14.1 24.5 10 3.3-1.9 4.7-12.9 5-18.3.2-4.3-.5-8.8-2.3-11.1" class="st0"/><path inkscape:connector-curvature="0" id="path86" d="M277.6 15.1c-9.3.3-17.7 1.4-25 3.4.5 3-.4 6 .3 8.1 2 1.5 5.5 1.5 8.6 1.8-2.7 1.3-6.4 1.8-9.5 1.1-.1 2.1-1 3.4-1.6 5 5.2 1.9 17.5 14.1 24.5 10 3.3-1.9 4.7-12.9 5-18.3.2-4.3-.5-8.8-2.3-11.1z" class="st12"/><path inkscape:connector-curvature="0" id="path88" d="M233.2 30.2c0-.7-.1-1.4-.1-2.1-2.9-1.9-7.6-1.9-10.8-3.5 4.7-.2 8.4-1.3 11.6-2.9-.1-1.8-.1-3.5-.2-5.3-5.3-3.6-10.2-9.1-16.4-12.5-3-1.6-13.3-5.8-16.5-5-1.8.4-1.9 2.6-2.7 4.7-1.5 4.5-5 11.6-5.3 18.3-.4 8.5-1.2 22.7 7.9 20.9 7.4-1.4 16-4.8 21.7-7.9 3.5-1.9 5.5-4.2 10.8-4.7" class="st0"/><path inkscape:connector-curvature="0" id="path90" d="M233.2 30.2c0-.7-.1-1.4-.1-2.1-2.9-1.9-7.6-1.9-10.8-3.5 4.7-.2 8.4-1.3 11.6-2.9-.1-1.8-.1-3.5-.2-5.3-5.3-3.6-10.2-9.1-16.4-12.5-3-1.6-13.3-5.8-16.5-5-1.8.4-1.9 2.6-2.7 4.7-1.5 4.5-5 11.6-5.3 18.3-.4 8.5-1.2 22.7 7.9 20.9 7.4-1.4 16-4.8 21.7-7.9 3.5-1.9 5.5-4.2 10.8-4.7z" class="st12"/><path inkscape:connector-curvature="0" id="path92" d="M238.5 20.1c-.8 4.6-1.7 5.9-1.4 10 12.3 8.2 14.7-14.1 1.4-10" class="st0"/><path inkscape:connector-curvature="0" id="path94" d="M238.5 20.1c-.8 4.6-1.7 5.9-1.4 10 12.3 8.2 14.7-14.1 1.4-10z" class="st12"/><path inkscape:connector-curvature="0" id="path96" d="M256.4 16.4s-3.8 5.5-1.1 7.1 5.5 0 7.1 2.7 0 4.4.5 7.7 3.3 3.8 6 4.4c2.7.5 10.4 1.6 11.5-1.1l-3.3 9.9-6.6 2.2-20.8-12-1.1-6v-12" class="st13"/><path inkscape:connector-curvature="0" id="path98" d="M198.9-1.7c-.7 8.5-1.4 17.1-2.1 25.6-1.2 12.7 3.1 10.5 14.1 10.5 1.7 0 10.4-2 11-3.3 3-6.1-5-4.7 3.4-9.3 7.1-3.9 19.7 2.4 16.8 11-1.6 1.9-8.4.6-10.8 1.9-4.3 2.2-8.6 4.4-12.8 6.6-5.4 2.8-18 6.9-23.8 3-14.7-10 .9-35 6.2-45.4" class="st13"/><path inkscape:connector-curvature="0" id="path100" d="M213.3 192.2c-14.9 3.5-22.3-6.2-26.8-16.3-4 1-2.4 6.5-1.4 9.3 2.7 7.3 13.4 17.1 22.2 15.8 3.7-.6 8.9-4.1 6-8.8" class="st14"/><path inkscape:connector-curvature="0" id="path102" d="M286 175.2h.7c3.4-7 6.3-14.4 10.5-20.6-2.8-6.6-21.6-12.5-21.3-.6 4 1.8 11 .4 14.6 2.6-2 5.7-5 10.6-4.5 18.6" class="st14"/><path inkscape:connector-curvature="0" id="path104" d="M220.9 175c3.2-5.9 4.2-12 8.8-16.5 2-2 6-4.4 4.1-10-.5-1.3-3.8-4.2-5.8-4.8-7.1-2.1-23.7-.4-18.1 8.4 5.9-.3 13.8-3.8 18.2.4-3.4 5.6-9.4 16.3-7.2 22.5" class="st14"/><path inkscape:connector-curvature="0" id="path106" d="M283.3 115.5c-10.7-6.9-22.6-14.3-40.2-12.6-3.7 3.3-5.2 10.5-1.5 15.3 1.9-3.3.7-9.2 6-10.1 9.9-1.7 21.5 6.1 28.7 8.8 4.4 7.5-.4 10.2-4.4 15-8.2 9.9-19.2 22.1-18.8 36.9 3.3 2.4 3.6-3.7 4.1-4.8 4.3-10 15-22.8 22.9-31.4 1.9-2.1 5.1-4.1 5.5-5.5.9-4.1-2.7-8.9-2.3-11.6" class="st14"/><path inkscape:connector-curvature="0" id="path108" d="M142.2 122.7c-3.4 1.9-4.2 10.3-8.1 10.6-5.6.3-4.6-10.9-4.6-17.5-3.9 3.5-4.6 14.3-1.7 19.9-3.2 1.6-4.7-1.8-6.5-2.9 2.4 16.7 24.6 7.7 20.9-10.1" class="st14"/><path inkscape:connector-curvature="0" id="path110" d="M290.1 108.5c-5-9.5-12-19.9-26.6-20.2-.3 3.1-.5 7.7 0 9.6 11.2 1 18.1 6.7 26.6 10.6" class="st14"/><path inkscape:connector-curvature="0" id="path112" d="M220.1 102.3c9.3-4.9 26.5-5.4 39.1-5.1.7-2.8.7-6.2.7-9.6-16.3-.7-35.5 3.3-39.8 14.7" class="st14"/><path inkscape:connector-curvature="0" id="path114" d="M218.3 93.2c6.4-16.2 28.6-14.3 47.3-13.9-.8-2.1-2.6-4.6-4.8-5.5-6-2.4-22.5-4.3-30.8.1-5.3 2.8-8.7 9.1-11.5 12.8-1.5 1.9-8.4 6.5-.2 6.5" class="st14"/><path inkscape:connector-curvature="0" id="path116" d="M282.5 3.9c-7.6-13-14.8-26.3-23.8-37.7 3.8 11.1 5.4 29.6 5.9 43.7 8 3.7 14.7-.8 17.9-6" class="st15"/><path inkscape:connector-curvature="0" id="path118" d="M323.2-42.7c-8.5-1.7-14.4-9.9-22.7-9.4 4.6 6.4 12.5 9.1 22.7 9.4" class="st14"/><path inkscape:connector-curvature="0" id="path120" d="M327-55.9c-6.9-.7-15-1.8-22-1.3 3.3 5.1 16 3.3 22 1.3" class="st14"/><path inkscape:connector-curvature="0" id="path122" d="M329.4-67.4c-7.8-.2-17.4 0-24.8.6 4.3 4.7 19.7 1.8 24.8-.6" class="st14"/><path inkscape:connector-curvature="0" id="path124" d="M267.9-98.6c1.1-9.7 5-19.6 4.5-30.3-4.3-1.4-6.8-2.7-12.5-2.7-.4 9.1-1.6 22.9-1.3 31.6 2.9-.2 7.1 2 9.3 1.4" class="st6"/><path inkscape:connector-curvature="0" id="path126" d="M255.4 45c-3.9-2.5-7.2-5.7-11-8.4-8.3-.4-12.8.6-18.9 5.3.1.4.7.2.7.7 9-4 20.2 1.6 29.2 2.4" class="st3"/><path inkscape:connector-curvature="0" id="path128" d="M208.8-15.6C211.2-5 220.8.5 229.5 6.3c9-11.4 14.4-26 20.4-40.1-14.2 4.3-28.7 11.2-41.1 18.2" class="st15"/><path inkscape:connector-curvature="0" id="path130" d="M258.7-100c-.4-8.6.9-22.5 1.3-31.6 5.7 0 8.2 1.3 12.5 2.7.5 10.7-3.4 20.5-4.5 30.3-2.3.6-6.5-1.6-9.3-1.4m-89.5 49.1c3.8-34.8 9.3-64.1 19.3-95 22.3-6.8 49.3-7.4 69-1.3-3.6 17.4-2 38.6-4.2 57.2-1.6 14-.8 28-3 42.3-23.8 5-57.7 1.2-81.1-3.2m86.9 3c-.2-15 .7-29.7 1.8-44.7 5.7.9 9.6 1.4 15 2.6-1.7 14.4-1.5 30.7-5.1 43.4-4.1 0-7.7.1-11.7-1.3m29.1 2.4c-2.7.6-5.9 0-8.5 0 1.2-12.2 4.2-25.7 5.2-38.5 4.1-.1 6.3 1.8 9.7 2.5.2 11.3-1 26.7-6.4 36m44.2-40.3c8.5 2.1 13.9 12.5 11.5 23.3-1.6 7.2-4.5 20.8-7.5 25.4-2.3 3.4-8.4 7.9-13.3 4.8-8-5.1-22-6.6-27.8-12.7 2.9-9.7 3.8-23 5-35.3 9.9-.6 22.2 2.7 30.4-.8-5.8-1.9-13.3-1.9-18.2-4.6 4.1-2 13.6-1.6 19.9-.1m-79.5 52c-6 14.1-11.5 28.7-20.4 40.1C220.8.5 211.3-5 208.8-15.6c12.4-7 26.9-13.9 41.1-18.2m14.8 43.7c-.6-14.1-2.2-32.6-5.9-43.7 9 11.4 16.2 24.7 23.8 37.7-3.3 5.2-10 9.7-17.9 6m-16.8 6c-3.4.4-6.3-3.9-10.7-2.1-1-1.1-1.9-2.3-3-3.4C244-1.4 248.4-18.1 256-31.9c4 13.3 3.6 27.8 4.5 42.3-5.6-.3-8.7 5-12.6 5.5m-10.8 14.2c-.4-4 .6-5.3 1.4-10 13.3-4.1 10.9 18.2-1.4 10m-14.7 4.8c-5.7 3.1-14.3 6.5-21.7 7.9-9.1 1.7-8.3-12.5-7.9-20.9.3-6.7 3.8-13.8 5.3-18.3.7-2.1.9-4.3 2.7-4.7 3.1-.7 13.5 3.4 16.5 5 6.3 3.4 11.1 8.8 16.4 12.5.1 1.8.1 3.5.2 5.3-3.2 1.6-6.9 2.7-11.6 2.9 3.2 1.6 7.9 1.6 10.8 3.5 0 .7.1 1.4.1 2.1-5.3.5-7.3 2.8-10.8 4.7m-54.5 9.9c-4.7-4.8 13.3-11.4 19-11.7 0 3 1.7 5.9 1.4 8.1-6.8 1.2-15.8.4-20.4 3.6m58.4-2.2c0-.5-.6-.3-.7-.7 6.1-4.8 10.6-5.7 18.9-5.3 3.7 2.7 7.1 5.9 11 8.4-9.1-.8-20.3-6.4-29.2-2.4m53.5-16.3c-.3 5.3-1.7 16.3-5 18.3-6.9 4-19.3-8.2-24.5-10 .6-1.6 1.5-2.9 1.6-5 3.1.8 6.8.2 9.5-1.1-3.1-.3-6.5-.3-8.6-1.8-.8-2.2.2-5.1-.3-8.1 7.3-2.1 15.7-3.2 25-3.4 1.9 2.2 2.6 6.7 2.3 11.1M159.9 40.2c-1.5 1.1-11.6 14.2-12.9 13.6-18.2-7.2-35.2-19.6-50.5-31.3 14.5-31.1 20.4-69.3 21.4-106 16.6-7.8 31.2-19 53.8-20.2-2.6 18.5-5 34.9-6.5 52.3-5.7 2.4-13.8-.1-19.1.7 0 6.4 8.1 2.8 8.8 7.1.5 3.3-4.5 3.5-2.9 8.6 4.1-1.5 6.3-4.8 10.7-6.1 4 8.8-.1 24.5.5 31.9.1 1.4.7 7.7 3.8 6.6 2.8-1-.2-16.7.1-23.7.3-6.4-.8-12.7 1.8-16.7 21.8 3 43.9 4.9 67.5 5.5-5.2 2.2-11.4 4.3-18.1 8.1-3.7 2.1-15.2 6.4-16.3 9.8-1.7 5.5 4.4 8.5 5.5 13.3-11-6-13.1 5.8-15.8 14.1-2.4 7.5-3.7 13.2-4.3 17.5-9.2 4.5-19.3 9.1-27.5 14.9m110.3 12c15.2 7.4 17.9-27.5 12-38.7.9-3.3 4.1-4.6 5.4-7.6-8.5-15.2-17.9-29.3-26.5-44.3 6.4 4 15.6.7 23.2 3.7 2.8 1.1 4.8 7.4 6.9 12.5C297-8.3 303 9.3 305.7 22.6c.6 3 2.3 9.6 1.9 12.3-.7 4.8-7.2 8.4-10.5 11.4-6.1 5.5-10 10.4-16.4 15.5-2.8-3.9-8.4-6.5-10.5-9.6m-145 134.6c-7.2-8-5.7-22.9-4.8-33.5 13.1 8.2 30.4-.7 30.3-14.6 6.2.2 2.3 7.8 1.2 12.7-3.7 16.1 6.2 33.5.4 48.2-11.2-.9-20.4-5.5-27.1-12.8m51.8 46.1c-16.4-4.6-37.3-16.5-44.1-31.2 5.2.8 8.8 3.4 14 3.7 1.9.1 4.5-.8 6.7-.3 4.4 1.1 8.2 11.1 11.6 14.8 3.3 3.6 7.2 5.2 9.9 8.5 1.7.8 4.3.8 4.4 3.4-.9.8-1.6 1.4-2.5 1.1m85.2-4.3c-17 9.6-45.8 16.8-63.8 7.8-14.6-7.3-34.3-19.3-41-34.5 6.3-14.7-1.9-28.2-2.4-43.1-.3-7.9 3.7-14.9 4-23.5-2.1-3.5-8.7-4-13.3-3.7-1.5 7.7-4.2 16.3-12.1 17.1-11.2 1.2-19.3-8-19.8-17.7-.6-11.3 8.7-30.1 21.9-28.8 5.1.5 6.4 5.6 11.9 5.6 3-6-4.6-7.9-5.4-12.2-.2-1.1.6-5.4 1.1-7.5 2.4-9.9 7.7-22.7 13-30.3 6.7-9.6 19.8-11 33.9-11.9 2.5 5.4 11.8 5 17.9 3.6-7.3 2.9-14 9.8-19.6 16-6.4 7.1-12.9 14.7-13.2 23.9 12.1-16.8 22.1-31.5 44.2-38.9 16.7-5.6 36.2 2.6 49 11.6 5.3 3.7 8.5 9.7 12.3 15.1 14.1 20.3 20.7 49.4 19.3 77.5-.6 11.6-.6 23.2-4.5 31-4.1 8.2-17.8 15.5-25.9 8.1-1.5 7.9 6.7 12.9 16.3 10-6.9 8.6-14.1 19.3-23.8 24.8m31.6-262c13.3 6.6 38.1 17.8 46.4 0 3.1-6.6 6.7-17.6 8.3-24.4 2.2-9.5-2.4-29.6-12.3-32.8-8.7-2.8-18.8-2.7-29.2-.6-1.2 1-2.6 2.8-3.6 4.7-7.5.3-14.4-.4-20.3-3.5.6-5.5-3.2-6.4-6.7-7.5-2.6-10.3 5.2-23.7 3.3-33.1-1.3-6.7-9.5-7.7-15.6-9-.2-3.7.3-6.8.7-9.9-1.4-5.1-7.6-8-13.4-8.7-19.3-2.3-48.6-3.4-67.2 3.3-5.2 12.7-9.3 28.2-13.6 42.7-18.1-1.9-32.8 7.8-46.6 14.2-4.8 2.2-11.4 3.4-13.2 7.2-1.7 3.7-1 10.7-1.5 17.4-1.1 17-2 33.5-6.5 50.9-2 7.8-5.5 14.7-8 22.3-2.3 7-6.2 15.6-7.3 22.6-1.5 10.3 8.2 10.9 14.4 15.4 9.6 6.9 17.2 10.8 27.6 17 3.1 1.9 12.4 6.5 13.4 8.7 2.1 4.3-3.6 10.3-5.1 13.7-2.4 5.3-3.7 9.8-4 15-8.7 1.4-15.4 6.6-19.4 12.4-6.6 9.7-11.2 27.7-5.5 41.3.4 1.1 2.7 3.2 3 4.8.7 3.3-1.2 7.6-1.3 11-.6 17.7 3 33 15 38.4 4.9 19.3 22.2 25.7 38.6 35.3 6.1 3.6 12.9 5.9 19.8 8.4 25 9.2 63.3 7.5 84-8.2 8.8-6.6 22.8-20.7 27.9-30.8 13.3-26.8 12.3-71.6 3-104.3-1.2-4.4-3.1-10.8-5.6-16.1-1.8-3.7-7.2-11-6.6-14.3.7-3.4 12.5-12.3 15-14.8 4.6-4.4 13.2-10.2 13.9-15.8.8-5.9-2.6-14-4.3-19.7-5.5-18.7-11-36.2-17.5-53.2" class="st14"/><path inkscape:connector-curvature="0" id="path132" d="M205.2 98.2c.7 1 4.7 2.4 10.2-.3 0 0-6.6-1.1-6-12l-2.7.5s-2.8 10-1.5 11.8" class="st7"/><path inkscape:connector-curvature="0" id="path134" d="M253.2 4.1c0-1.7-1.3-3-3-3s-3 1.3-3 3 1.3 3 3 3 3-1.4 3-3" class="st16"/><path inkscape:connector-curvature="0" id="path136" d="M256.2-9.9c0-1.7-1.3-3-3-3s-3 1.3-3 3 1.3 3 3 3 3-1.3 3-3" class="st16"/></g></g></svg>