<svg xmlns="http://www.w3.org/2000/svg" xml:space="preserve" viewBox="0 108.4 512 295.2"><linearGradient id="a" x1="488.157" x2="-21.055" y1="469.917" y2="179.001" gradientTransform="matrix(1 0 0 -1 0 514)" gradientUnits="userSpaceOnUse"><stop offset="0" style="stop-color:#ff5caa"/><stop offset="1" style="stop-color:#ff4e62"/></linearGradient><path d="m0 403.6 94.6-239.3c13.3-33.7 46.2-55.9 82.8-55.9h57l-94.6 239.3c-13.3 33.7-46.2 55.9-82.8 55.9z" style="fill:url(#a)"/><linearGradient id="b" x1="522.305" x2="13.094" y1="410.144" y2="119.228" gradientTransform="matrix(1 0 0 -1 0 514)" gradientUnits="userSpaceOnUse"><stop offset="0" style="stop-color:#ff5caa"/><stop offset="1" style="stop-color:#ff4e62"/></linearGradient><path d="m138.8 403.6 94.6-239.3c13.3-33.7 46.2-55.9 82.8-55.9h57l-94.6 239.3c-13.3 33.7-46.2 55.9-82.8 55.9z" style="fill:url(#b)"/><linearGradient id="c" x1="556.456" x2="47.244" y1="350.368" y2="59.452" gradientTransform="matrix(1 0 0 -1 0 514)" gradientUnits="userSpaceOnUse"><stop offset="0" style="stop-color:#ff5caa"/><stop offset="1" style="stop-color:#ff4e62"/></linearGradient><path d="m277.6 403.6 94.6-239.3c13.3-33.7 46.2-55.9 82.8-55.9h57l-94.6 239.3c-13.3 33.7-46.2 55.9-82.8 55.9z" style="fill:url(#c)"/></svg>