<svg xmlns="http://www.w3.org/2000/svg" xml:space="preserve" viewBox="122.67 -0.13 266.65 512.13"><path d="M551.4 34.5s54.3 87.6 72.6 118.7c.3.5.3 1.1 0 1.6-.5.5-1.4.5-1.9 0l-93.7-98z" style="fill:#f05a28" transform="translate(-187.579 -7.023)scale(.92419)"/><path d="M391.1 353.8c15.9-33.8 37.5-64.5 63.9-90.9 9.9-10 20.5-19.4 31.7-28.1v69.3zm-55.4 64.1 151.2-77v176l34.1 44.7V323.3l21.1-10.6c50.6-25.5 70.9-87.2 45.5-137.7-4.5-9-10.4-17.3-17.3-24.5l-78.1-81.4c-6.4-7-6-17.8.8-24.3 7-6.5 17.9-6.1 24.5.8L528.1 57l23.3-22.4c-27.5-35.8-61.3-31.7-80.9-13.4-19.9 18.8-20.9 50.1-2.1 70.1l78.5 81.8c26.5 28.3 25.1 72.7-3.2 99.2-3.7 3.4-7.7 6.5-12 9.1l-10.6 5.5V175.7c-95 48.9-163 137.7-185.3 242.2" style="fill:#010000" transform="translate(-187.579 -7.023)scale(.92419)"/></svg>