<svg xmlns="http://www.w3.org/2000/svg" xml:space="preserve" viewBox="141.14 0 229.74 512.1"><path d="M366.8 203.8c-27-119-83.2-150.7-97.5-173.1-5.9-9.9-11.2-20.1-15.7-30.7-.8 10.6-2.1 17.2-11.1 25.2-18 16.1-94.7 78.5-101.1 213.7-6 126.1 92.7 203.8 105.7 211.8 10 4.9 22.2.1 28.2-4.4 47.5-32.6 112.5-119.6 91.5-242.5" style="fill:#10aa50"/><path d="M257.7 383.7c-2.5 31.2-4.3 49.3-10.6 67.2 0 0 4.1 29.7 7 61.2h10.3c2.5-22.2 6.2-44.2 11.2-65.9-13.2-6.6-17.4-35.2-17.9-62.5" style="fill:#b8c4c2"/><path d="M275.7 446.1c-13.5-6.2-17.4-35.3-18-62.5 3.3-44.8 4.3-89.7 2.9-134.5-.7-23.5.3-218-5.8-246.5 4.2 9.6 9 19 14.5 28 14.3 22.4 70.6 54.1 97.5 173.1 21 122.8-43.6 209.6-91.1 242.4" style="fill:#12924f"/></svg>