<svg xmlns="http://www.w3.org/2000/svg" xml:space="preserve" viewBox="31.76 0 448.51 512"><path d="M255 0h1.2c6.1 2.9 12 6.1 17.8 9.7 66.2 38.1 132.4 76.1 198.6 114.2 5.2 2.8 8.2 8.5 7.6 14.4-.1 80.3 0 160.5-.1 240.7-.9 3.8-3.2 7.2-6.5 9.3L262.4 509.8c-3.5 2.7-8.2 2.9-12 .7-70.5-40.4-140.9-80.9-211.3-121.5-4.7-2.2-7.6-7-7.3-12.2V136.1c-.4-5.1 2.4-10 7.1-12.3 66.1-37.9 132.2-76 198.3-114 5.9-3.4 11.7-6.9 17.8-9.8" style="fill:#019639"/><path d="M123.7 156.1v198.6c-.2 7.4 2.6 14.6 7.8 19.9 10.1 10 25.8 11.5 37.7 3.8 7.8-5.3 12.5-14.2 12.5-23.6 0-47.9-.1-95.8 0-143.7 43.7 52.3 87.5 104.5 131.3 156.7 12.4 12.5 30.3 17.9 47.5 14.3 12.3-2.4 21.6-12.6 22.9-25.1.1-67.6.1-135.1 0-202.6-1.4-15.9-15.4-27.7-31.3-26.3-14 1.2-25.1 12.3-26.3 26.3 0 48.7-.3 97.3 0 146-42.9-50.6-85.3-101.6-128-152.4-11.5-14.7-30-22.1-48.4-19.2-14.2 1.4-25.1 13.1-25.7 27.3" style="fill:#fff"/></svg>