<svg xmlns="http://www.w3.org/2000/svg" id="Layer_1" data-name="Layer 1" viewBox="0 0 209.67 180.35"><defs><style>.cls-2{fill:#ed1944}</style></defs><path d="M167.15 0h-150A17.17 17.17 0 0 0 .03 17.12v40.35h41.61v-6.59a9.26 9.26 0 0 1 9.26-9.26h82.53a9.26 9.26 0 0 1 9.26 9.26v6.59h41.64V17.12A17.18 17.18 0 0 0 167.15 0m-24.49 129.48a9.27 9.27 0 0 1-9.26 9.26H50.87a9.27 9.27 0 0 1-9.26-9.26v-6.59H0v40.34a17.17 17.17 0 0 0 17.12 17.13h150a17.18 17.18 0 0 0 17.21-17.13v-40.34h-41.67ZM0 69.37h41.62v41.62H0zm142.66 0h41.62v41.62h-41.62z" class="cls-2" style="opacity:.98"/><path d="M209.66 171.15a9.2 9.2 0 1 0-9.2 9.21 9.21 9.21 0 0 0 9.2-9.21m-9.2 6.94a6.94 6.94 0 1 1 6.94-6.94 6.94 6.94 0 0 1-6.94 6.94" class="cls-2"/><path d="M203.91 169.48v-.05a2.88 2.88 0 0 0-.76-2.09 3.38 3.38 0 0 0-2.45-.86h-3.37v9h1.86v-3h1.14l1.66 3h2.14l-1.92-3.35a2.72 2.72 0 0 0 1.7-2.65m-1.88.06a1.3 1.3 0 0 1-1.47 1.35h-1.38v-2.72h1.34c1 0 1.51.45 1.51 1.35Z" class="cls-2"/></svg>