<svg xmlns="http://www.w3.org/2000/svg" role="img" viewBox="75.83 -0.17 204.59 359.84"><defs><style>.cls-4{fill:#ae7f70}.cls-5{fill:#060707}.cls-6{fill:#348ebf}.cls-7{fill:#090a0a}.cls-8{fill:#4f3f3e}.cls-9{fill:#2b2323}</style></defs><path fill="none" d="M209.81447 110.42352l.00017-.02172-.00922.00024.00905.02172z"/><path fill="#fefefe" d="M196.72663 237.87232a29.29752 29.29752 0 0 0 5.31311.07143 68.04169 68.04169 0 0 0 7.40876-.46815 46.671 46.671 0 0 0 27.1235-14.42022 16.89515 16.89515 0 0 0 4.3136-16.67011 34.86477 34.86477 0 0 0-16.93876-21.75792 14.84365 14.84365 0 0 0-8.44088-2.04436 21.79984 21.79984 0 0 0-13.87128 6.05335 47.52929 47.52929 0 0 0-13.56019 23.03789 29.05755 29.05755 0 0 0 1.97975 20.8107 8.853 8.853 0 0 0 6.67239 5.38739zm-1.80865-29.638a16.4938 16.4938 0 0 1 14.4717-4.5451 3.31359 3.31359 0 0 1 2.12868 5.6142c-.48382.59683-1.058 1.11973-1.55286 1.70832a4.48493 4.48493 0 0 0-.30765 5.75381 5.10466 5.10466 0 0 0 5.64844 2.5212 16.29546 16.29546 0 0 0 3.08058-1.38185c2.94319-1.4496 5.17686-.06036 5.212 3.21731.0829 7.72575-7.20349 15.21154-14.94423 15.34974-.67957.01208-1.35961.00155-2.30222.00155-4.25749-.08133-8.464-1.02028-11.69165-4.50462a16.4333 16.4333 0 0 1-3.9822-9.47919c-.65962-5.32821.06159-10.40082 4.23937-14.25549zm-48.71484-24.27882a13.93331 13.93331 0 0 0-7.18149-1.623 20.31457 20.31457 0 0 0-10.40675 3.86982 36.4915 36.4915 0 0 0-14.2479 19.89885 15.83654 15.83654 0 0 0-.36272 8.16614 21.06663 21.06663 0 0 0 6.59161 10.68633c9.80291 9.44144 21.82927 13.06163 35.1279 13.18679a9.94389 9.94389 0 0 0 9.81687-6.13911 26.11667 26.11667 0 0 0 2.70533-11.62809 39.51068 39.51068 0 0 0-1.93764-11.71738 38.52508 38.52508 0 0 0-20.10521-24.70035zm13.57922 33.852c2.2839-1.46879 4.36324-.62319 4.76526 2.11061a13.39328 13.39328 0 0 1-3.06653 10.89432 14.72978 14.72978 0 0 1-12.19512 5.75279c-2.956-.23084-5.80411-.14108-8.48066-1.44766a16.7795 16.7795 0 0 1 9.50323-31.59239q.37158.04061.74108.09774a3.68682 3.68682 0 0 1 3.00955 2.62017 3.12473 3.12473 0 0 1-1.206 3.48488c-.27054.24051-.5229.50264-.77292.765-2.018 2.11826-2.22369 4.471-.58029 6.59722 1.929 2.49571 4.28064 3.04465 6.91462 1.59637.47372-.26065.91177-.58592 1.36775-.87915zm46.70803 111.80163a48.09947 48.09947 0 0 1-36.1028 6.07221 96.7091 96.7091 0 0 1-25.711-10.3056c-1.60261-.88179-3.19559-1.781-4.87046-2.71539a1.228 1.228 0 0 0 .43587.9781 55.41041 55.41041 0 0 0 25.53407 18.18444 42.59714 42.59714 0 0 0 24.6604 1.49967 42.03518 42.03518 0 0 0 23.52285-15.35933 21.785 21.785 0 0 0 3.76789-5.77189 1.49419 1.49419 0 0 0-1.014.4818 110.64569 110.64569 0 0 1-10.22282 6.93599z"/><path fill="#563a39" d="M256.51524 113.37568c7.44126-17.02829 13.98818-34.36075 16.30062-52.96756a75.86406 75.86406 0 0 0-.38931-24.21557A35.9308 35.9308 0 0 0 243.92186 7.43c-8.3356-1.49656-15.73943.52554-21.73928 6.74679a50.416 50.416 0 0 0-10.41367 16.56881c-7.20067 18.03887-10.44309 36.95215-12.237 56.17062-.7195 7.70849-1.32163 15.42794-1.97726 23.14248h.00008a19.14922 19.14922 0 0 1 4.81773-1.27617c.3322-.0581.81135-.20947 1.00189.12556.168.29549-.06442.69072-.26094 1.00516a19.39455 19.39455 0 0 0-2.8663 6.68255 12.56444 12.56444 0 0 0 .14981 5.50362c.24239.93505.75873 1.23506 1.7118.796a8.29269 8.29269 0 0 0 4.20369-5.37282 30.08859 30.08859 0 0 0 1.05008-7.87283c.10825-1.473.0195-2.96049.2586-4.50471q1.09212 2.62839 2.18423 5.257l.00922-.00024c.08064-3.52176-.26367-7.02692-.4174-10.53964-.12072-2.76.03777-5.51337.14381-8.2715.51317-13.34452 1.90231-26.57457 5.53411-39.46439 2.35237-8.34886 5.47937-16.42 10.88115-23.345 2.93866-3.76719 6.56238-6.85707 11.40458-7.85856 6.30906-1.305 12.03206.49 17.0897 4.20936 4.744 3.48878 7.06948 8.60546 8.42558 14.174a45.06116 45.06116 0 0 1 .36031 17.34913 157.46109 157.46109 0 0 1-10.69475 38.37523 180.4721 180.4721 0 0 1-22.10394 39.14655 56.88146 56.88146 0 0 1-8.47473 9.14977c-2.22835 1.89708-3.52926 1.74111-4.9709-.78953a47.92319 47.92319 0 0 1-4.67924-12.53156c-.07393-.30305-.20444-.59222-.30874-.88786-.52524 1.09133-1.03145 2.1925-1.58421 3.26969a1.21464 1.21464 0 0 0 .06091 1.36482c2.44408 3.959 2.6459 8.29171 2.18961 12.7787a47.28307 47.28307 0 0 1-2.26705 9.828h-.00008c-.02511.25055-.046.59877-.33464.58426-.3552-.01789-.15574-.383-.198-.59738-.634-4.08988-.88335-8.29107-3.46765-11.81126a2.87189 2.87189 0 0 0-1.70859-1.36445c.56688 9.13161-2.6385 17.23848-6.43992 25.1854a39.092 39.092 0 0 0 .63176-5.87337 23.83214 23.83214 0 0 0-1.57543-7.65267 38.53925 38.53925 0 0 0-10.32144-14.6127c-.05389-.04952-.16227-.03969-.40342-.09163 1.96821 10.48778-2.00915 19.1671-7.98506 27.3059a.70489.70489 0 0 1-.30289-.84981c.79756-5.68361-1.14759-10.86327-2.94961-16.0651-.38447-1.10982-.93528-2.16269-1.306-3.27618-.38517-1.15707-.96515-1.08852-1.8315-.52258a8.17786 8.17786 0 0 0-2.98545 3.94647 40.161 40.161 0 0 0-2.33646 10.66676 103.45065 103.45065 0 0 0-.59394 11.48264c-.01287 1.217-.02129 2.43449-.03548 3.6524-.44452-1.17065-.85418-2.34621-1.23772-3.52544a69.02409 69.02409 0 0 1-3.27712-26.9896 25.94008 25.94008 0 0 0-4.10292 15.36487c-.6313-1.48259-1.2902-2.95409-1.88866-4.44989a49.88812 49.88812 0 0 1-3.22535-11.99578 11.92621 11.92621 0 0 1 .15871-4.85643 1.42824 1.42824 0 0 0-.65353-1.82587 9.19285 9.19285 0 0 1-3.16981-3.63511 40.78881 40.78881 0 0 1-3.6857-10.56258l-.00017-.00016a53.95432 53.95432 0 0 1-5.88677 18.61883c-1.42386 2.53469-2.70954 2.629-4.95842.67768-5.91617-5.13333-10.40855-11.41643-14.59982-17.94743A184.07524 184.07524 0 0 1 99.009 82.002a145.54739 145.54739 0 0 1-5.88919-25.27406 60.383 60.383 0 0 1-.72488-9.445 34.03031 34.03031 0 0 1 4.35958-16.3286c3.24484-5.65382 8.39347-8.74183 14.64724-10.04582 8.71235-1.81669 14.92167 2.29177 19.77193 8.90777 5.12071 6.985 8.06554 15.02828 10.37409 23.29806a137.76514 137.76514 0 0 1 3.87279 21.00107c.7248 6.15161 1.17867 12.31281 1.41638 18.50559.14076 3.66744.02869 7.31352-.04188 10.96923q1.46328-3.83409 2.92671-7.66819c.216 6.86635.43165 13.66376 2.59576 20.26348a91.03692 91.03692 0 0 1 5.03891-15.90227l.00031.00008q.26484-.12039.52952-.24028l.00008-.00015c-.01123-.67771.01-1.35774-.03852-2.03286-.71786-9.98087-1.52915-19.95162-3.22242-29.8275-1.78962-10.4378-3.68367-20.8532-7.08089-30.92033a66.8686 66.8686 0 0 0-11.371-21.4662A23.47151 23.47151 0 0 0 110.035 8.053c-8.36566 2.62625-15.48842 7.01029-20.30926 14.55607-5.33564 8.35143-6.98582 17.70943-6.89248 27.3874A112.64592 112.64592 0 0 0 86.529 75.46922c3.36532 13.85583 8.59919 27.03531 14.44447 39.99539 5.04317 11.18155 10.75035 22.0209 16.79068 32.69015 1.08744 1.92078.92763 2.63616-.54988 4.04419a59.52762 59.52762 0 0 0-16.4586 26.87943c-2.31221 7.95238-1.93468 16.0239-1.21651 24.12672q.96531 10.89158 1.81209 21.79348c.3667 4.73858.42534 9.509.9767 14.2236 1.0369 8.866 1.64761 17.76067 2.25715 26.65894a100.763 100.763 0 0 0 2.36506 18.42456c2.08433 8.08014 5.33128 15.74442 8.4539 23.45029 1.42161 3.50812 2.94643 6.97444 4.54346 10.74007.21353-.74259.33683-1.1712.46-1.59971a110.59412 110.59412 0 0 1 3.29523-13.22825 76.31231 76.31231 0 0 1 12.32794-21.88191c5.6617-7.09719 11.84224-13.68544 19.48517-18.7234a38.233 38.233 0 0 1 17.04585-6.52618 37.515 37.515 0 0 1 12.50325.82618c9.186 2.14043 17.11035 6.75546 24.41568 12.50481a86.926 86.926 0 0 1 24.63357 30.76927c.66779 1.37489 1.21638 2.80765 1.82034 4.2135a130.07287 130.07287 0 0 0 8.718-27.3297c1.57368-8.77466 2.89936-17.59378 4.3407-26.3923 1.41926-8.66362 2.88477-17.3192 4.10166-26.01556q2.01407-14.39426 3.73539-28.82539a65.73689 65.73689 0 0 0-.16338-20.42054c-2.04806-10.64453-6.698-19.73254-15.42858-26.47123-1.795-1.38549-1.93447-2.29637-.73954-4.30942a287.10292 287.10292 0 0 0 16.01644-31.71053zM236.572 223.05529a46.67116 46.67116 0 0 1-27.12346 14.42022 68.0442 68.0442 0 0 1-7.40876.46815 29.29843 29.29843 0 0 1-5.31311-.07144 8.853 8.853 0 0 1-6.67239-5.38734 29.05751 29.05751 0 0 1-1.97975-20.8107 47.52927 47.52927 0 0 1 13.56019-23.0379 21.79984 21.79984 0 0 1 13.87128-6.05335 14.84365 14.84365 0 0 1 8.44088 2.04436 34.86477 34.86477 0 0 1 16.93876 21.75792 16.89512 16.89512 0 0 1-4.31364 16.67011zm-70.2636-14.39948a39.51068 39.51068 0 0 1 1.93764 11.71738 26.11667 26.11667 0 0 1-2.70533 11.62809 9.94389 9.94389 0 0 1-9.81687 6.13911c-13.29863-.12522-25.325-3.74535-35.1279-13.18679a21.06663 21.06663 0 0 1-6.59161-10.68633 15.83655 15.83655 0 0 1 .36272-8.16614 36.4915 36.4915 0 0 1 14.24787-19.89889 20.31457 20.31457 0 0 1 10.40675-3.86982 13.93336 13.93336 0 0 1 7.18149 1.623 38.52507 38.52507 0 0 1 20.10524 24.70039z"/><path d="M235.93468 304.85047v-.00008c-.67335-.03767-.695-.6497-.861-1.064a80.01039 80.01039 0 0 0-12.79188-20.90224 83.23716 83.23716 0 0 0-22.05917-18.9325 49.034 49.034 0 0 0-20.24538-7.05773 33.615 33.615 0 0 0-17.26219 2.6927 56.12013 56.12013 0 0 0-15.51958 10.58807 99.88128 99.88128 0 0 0-15.149 17.71846 66.58273 66.58273 0 0 0-10.384 24.78627c-.2664 1.43112-.24852 2.989-1.2548 4.21685a19.722 19.722 0 0 1 .47892 4.63439 28.45288 28.45288 0 0 0 7.27216 16.89594 36.89767 36.89767 0 0 0 16.25976 9.70114c11.05809 3.57667 22.54487 4.22863 34.02291 4.77356a124.66031 124.66031 0 0 0 14.78387-.33823 51.89251 51.89251 0 0 0 30.515-12.08735 39.473 39.473 0 0 0 11.7981-15.53089c2.64707-6.64124 2.29516-13.35607.39628-20.09436zm-21.97542 23.11269a42.03518 42.03518 0 0 1-23.52285 15.35932 42.59714 42.59714 0 0 1-24.6604-1.49967 55.41041 55.41041 0 0 1-25.53407-18.18444 1.22794 1.22794 0 0 1-.43586-.9781c1.6749.93443 3.26784 1.8336 4.87045 2.71539a96.70946 96.70946 0 0 0 25.711 10.30561 48.09947 48.09947 0 0 0 36.1028-6.07222 110.64042 110.64042 0 0 0 10.22271-6.936 1.49423 1.49423 0 0 1 1.014-.4818 21.785 21.785 0 0 1-3.76778 5.77191zM198.72534 296.347c.32637-6.12338 4.382-10.0938 10.09052-10.03219 4.08654.04406 9.89532 3.91833 11.39608 7.71382a9.56246 9.56246 0 0 1-.16964 5.74464 16.41528 16.41528 0 0 1-5.5795 8.95144 60.44089 60.44089 0 0 1-5.86868 4.39856 92.69035 92.69035 0 0 1-15.49791 8.07864 3.14769 3.14769 0 0 1-2.63561.00983 2.09262 2.09262 0 0 1-1.00087-3.409c1.54763-2.34028 3.18362-4.62457 4.66652-7.00468.12449-.19982.23367-.40451.35328-.60589a29.83788 29.83788 0 0 0 4.24581-13.84513zm-54.68287-6.7436a11.69855 11.69855 0 0 1 8.10219-3.29046 9.78519 9.78519 0 0 1 9.80577 9.626 31.2246 31.2246 0 0 0 3.84065 13.82751 28.92965 28.92965 0 0 0 3.10306 4.48013c.84155.99721 1.26727 2.40665 2.12358 3.50523.54652.70118 1.10927 1.58821.38494 2.473a2.91833 2.91833 0 0 1-2.8902 1.14467 10.83222 10.83222 0 0 1-2.59132-.78962 110.0892 110.0892 0 0 1-15.06828-8.24259c-1.01694-.701-2.02062-1.42482-2.99162-2.20474a26.36887 26.36887 0 0 1-5.647-6.01808 10.91379 10.91379 0 0 1 1.82819-14.511z" class="cls-4"/><path d="M209.48076 269.86762c-7.30531-5.74935-15.22963-10.36441-24.41567-12.50481a37.515 37.515 0 0 0-12.50325-.82618 38.233 38.233 0 0 0-17.04584 6.52617c-7.64293 5.038-13.82347 11.62622-19.48517 18.72341a76.31231 76.31231 0 0 0-12.32794 21.88191 110.59607 110.59607 0 0 0-3.29524 13.22825c1.00625-1.22789.9884-2.78574 1.2548-4.21686a66.58276 66.58276 0 0 1 10.384-24.78626 99.88058 99.88058 0 0 1 15.149-17.71848 56.12013 56.12013 0 0 1 15.51958-10.58807 33.61494 33.61494 0 0 1 17.26219-2.6927 49.034 49.034 0 0 1 20.24538 7.05773 83.23724 83.23724 0 0 1 22.05917 18.93248 80.01039 80.01039 0 0 1 12.79188 20.90224c.16611.41426.18763 1.02629.861 1.064-.60392-1.40585-1.1525-2.83861-1.82035-4.2135a86.92584 86.92584 0 0 0-24.63354-30.76933z" class="cls-4"/><path d="M157.57435 101.12447a.82858.82858 0 0 0 .03681-.49575c-.01006.05178-.01926.10387-.02823.15606a77.53757 77.53757 0 0 0-4.49488 14.34908c-.09071.491-.1803 1.15427-.72184 1.18478-.64081.0361-.76675-.681-.90719-1.17962a46.13269 46.13269 0 0 1-1.51573-8.67609 60.53525 60.53525 0 0 1-.24137-9.44108c-.75225 1.97194-1.46761 3.77592-2.11669 5.60508-.14583.411-.237.89769-.78438 1.01249l-.01463-.016a50.98386 50.98386 0 0 0-1.97647 16.5876c.07853 1.25487.24082 2.50453.36542 3.75682.65953.14821.59076.7797.68682 1.23833a37.33919 37.33919 0 0 0 2.80251 8.07045 11.49662 11.49662 0 0 0 3.51069 4.58713 1.7842 1.7842 0 0 1 .91579 1.83087c-.75405 3.958.18046 7.7444 1.168 11.52617a69.477 69.477 0 0 0 3.15383 8.68046 22.23425 22.23425 0 0 1 1.10381-8.01228 25.50943 25.50943 0 0 1 2.02327-4.89283 2.77512 2.77512 0 0 1 .80731-1.07675c.4623-.31927.77268-.21922.83195.35912a10.67089 10.67089 0 0 1-.09582 1.62617 70.69636 70.69636 0 0 0 3.25537 25.00407c.22194-.02308.44483-.04461.66755-.06652-.0315-2.51341-.01606-5.02557.16955-7.5474a79.03389 79.03389 0 0 1 1.40335-10.62995 18.94232 18.94232 0 0 1 2.09478-5.72237 6.79364 6.79364 0 0 1 2.52176-2.61018c.97006-.5392 1.6749-.36631 2.11349.64244a53.63944 53.63944 0 0 1 4.6227 16.42 11.86506 11.86506 0 0 1-.21376 2.95738 1.39906 1.39906 0 0 0 .66155-.64057 38.98725 38.98725 0 0 0 7.07153-16.32386 29.6287 29.6287 0 0 0 .039-7.185c-.06621-.73923-.54685-1.77986.153-2.14485.83983-.43781 1.37567.62608 1.92727 1.1659a36.33355 36.33355 0 0 1 8.95645 13.15638c1.59559 4.25257 2.409 8.62633 1.10724 12.90746a110.91389 110.91389 0 0 0 4.09434-11.11666 36.02919 36.02919 0 0 0 1.60035-11.25617c-.025-.65243-.241-1.58413.4753-1.84593.83461-.30508 1.36333.51635 1.82261 1.13314a12.61765 12.61765 0 0 1 1.95137 3.71177 34.27019 34.27019 0 0 1 1.5548 8.11c.01419.10029-.0496.21408.03283.31305a.86226.86226 0 0 1-.00444-.37693 47.951 47.951 0 0 0 2.16013-9.64093c.38728-4.20115.22507-8.31471-2.00439-12.0748a2.08683 2.08683 0 0 1 .00475-2.40812c.58334-.88958.64354-2.08481 1.60745-2.752.0269.00921.05046.02036.07557.03073 1.18515-4.85314.38236-9.58439-.89419-14.28156-.40163-1.47815-.86247-2.94023-1.2962-4.40941l-.009-.02172c-.53085.01193-.65992-.45457-.8006-.82548-.41629-1.09781-.88889-2.17519-1.22321-3.18664a38.78735 38.78735 0 0 1-1.119 11.23425 9.70071 9.70071 0 0 1-2.89385 4.66536 4.58206 4.58206 0 0 1-1.49475.91563c-1.17679.40834-1.82877.14046-2.19757-1.05668a11.64055 11.64055 0 0 1-.13429-5.90954 16.12225 16.12225 0 0 1 1.9215-4.91334 10.42738 10.42738 0 0 0 1.03456-2.09432 14.85614 14.85614 0 0 0-3.93548.6905c-.45248.135-.90136.49161-1.408.13693h-.00016a13.84589 13.84589 0 0 0-4.3226 3.0126 23762.8276 23762.8276 0 0 1-1.73121 2.66556 58.349 58.349 0 0 0-5.854-12.48734 35.002 35.002 0 0 1 .56555 5.403 21.06521 21.06521 0 0 1-3.75307 10.44793c-.55269.85169-.78735.31071-1.05468-.22264a41.2398 41.2398 0 0 1-3.64152-11.857c-.1144-.68861-.22889-1.37715-.37846-2.27727a52.053 52.053 0 0 0-4.79988 13.73091c-.55454-1.3345-.96016-2.33879-1.38745-3.33382a39.468 39.468 0 0 0-4.20369-7.11388c-.25634-.363-.624-.6702-.666-1.15925v-.00009c-1.11848-1.01388-1.83922-2.425-3.34891-3.37693 1.17267 4.58472-.12439 8.63834-1.70587 12.85754a26.93671 26.93671 0 0 1-2.82878-7.04931c-1.00228-1.47321-.82414-3.222-1.05336-4.85634a6.87349 6.87349 0 0 1 .18369-3.31794z" class="cls-5"/><path d="M166.05532 175.72939q-.02972-1.44457-.04906-2.88719c-.22272.02191-.44561.04344-.66756.06652.11613.36841.21829.73876.34034 1.10639a5.998 5.998 0 0 1 .37628 1.71428zm-19.25449-72.08994c.54738-.1148.63855-.60151.78438-1.01249.64908-1.82916 1.36446-3.63314 2.11669-5.60508a60.53525 60.53525 0 0 0 .24137 9.44108 46.13269 46.13269 0 0 0 1.51573 8.67609c.14046.49864.2664 1.21572.9072 1.17961.54151-.0305.63119-.6938.72183-1.18477a77.53777 77.53777 0 0 1 4.495-14.3491c.00894-.05219.01817-.10428.02823-.15606a.598.598 0 0 0-.25486-.34525l.00039-.00023-.00031-.00008a91.03692 91.03692 0 0 0-5.03891 15.90227c-2.16411-6.59972-2.37974-13.39713-2.59576-20.26348q-1.4634 3.83412-2.92671 7.66819l-.00882.03323z" class="cls-5"/><path d="M162.08334 147.90465a10.6721 10.6721 0 0 0 .09582-1.62617c-.05927-.57834-.36965-.67839-.832-.35912a2.77512 2.77512 0 0 0-.80731 1.07675 25.50943 25.50943 0 0 0-2.02327 4.89283 22.23425 22.23425 0 0 0-1.10381 8.01228 69.477 69.477 0 0 1-3.15383-8.68046c-.98753-3.78176-1.922-7.56814-1.168-11.52617a1.7842 1.7842 0 0 0-.91579-1.83087 11.49662 11.49662 0 0 1-3.51069-4.58713 37.33929 37.33929 0 0 1-2.80251-8.07044c-.09608-.45871-.02729-1.09017-.68682-1.23834l.00226.02172-.00008.00023.00018.00016a40.78821 40.78821 0 0 0 3.68569 10.56257 9.19291 9.19291 0 0 0 3.16982 3.63512 1.42822 1.42822 0 0 1 .65352 1.82587 11.92621 11.92621 0 0 0-.1587 4.85643 49.88869 49.88869 0 0 0 3.22534 11.99578c.59847 1.49578 1.25737 2.96729 1.88866 4.44988a25.94015 25.94015 0 0 1 4.10292-15.36487 69.0241 69.0241 0 0 0 3.27713 26.9896c.1052-.01123.21149-.02066.31687-.03158a70.69665 70.69665 0 0 1-3.2554-25.00407zm49.84595-18.82065c-.96391.66716-1.02411 1.86238-1.60745 2.752a2.08683 2.08683 0 0 0-.00475 2.40812c2.22946 3.76009 2.39167 7.87369 2.00439 12.07479a47.94983 47.94983 0 0 1-2.16013 9.64094.86221.86221 0 0 0 .00444.37692c-.08243-.099-.01864-.21273-.03283-.313a34.26961 34.26961 0 0 0-1.55481-8.11 12.61731 12.61731 0 0 0-1.95136-3.71178c-.45926-.61679-.988-1.43822-1.82261-1.13314-.7163.26179-.50036 1.1935-.4753 1.84593a36.02919 36.02919 0 0 1-1.60035 11.25617 110.91407 110.91407 0 0 1-4.09434 11.11667c1.30174-4.28111.48835-8.65487-1.10724-12.90745a36.33363 36.33363 0 0 0-8.95645-13.15638c-.5516-.53983-1.08744-1.6037-1.92727-1.1659-.69992.365-.21922 1.40562-.153 2.14485a29.6287 29.6287 0 0 1-.039 7.185 38.98728 38.98728 0 0 1-7.07153 16.32387 1.39908 1.39908 0 0 1-.66156.64057 11.86411 11.86411 0 0 0 .21376-2.95738 53.63943 53.63943 0 0 0-4.62269-16.42c-.43859-1.00875-1.14343-1.18164-2.1135-.64244a6.79368 6.79368 0 0 0-2.52175 2.61018 18.94232 18.94232 0 0 0-2.09478 5.72237 79.0341 79.0341 0 0 0-1.40335 10.63c-.18561 2.52183-.201 5.034-.16955 7.5474.09632-.00952.19232-.01958.28877-.02886a103.44581 103.44581 0 0 1 .59394-11.48264 40.161 40.161 0 0 1 2.33646-10.66676 8.17786 8.17786 0 0 1 2.98545-3.94647c.86629-.56594 1.44639-.63449 1.8315.52258.37075 1.11349.92156 2.16636 1.306 3.27618 1.802 5.20182 3.74715 10.38149 2.9496 16.0651a.70488.70488 0 0 0 .3029.84981c5.97591-8.13876 9.95327-16.81812 7.98506-27.3059.24113.05194.34953.04216.40342.09163a38.53936 38.53936 0 0 1 10.32144 14.6127 23.8324 23.8324 0 0 1 1.57543 7.65267 39.09328 39.09328 0 0 1-.63176 5.87337c3.80142-7.94693 7.0068-16.0538 6.43992-25.18541a2.87189 2.87189 0 0 1 1.70859 1.36445c2.5843 3.5202 2.83362 7.72139 3.46764 11.81126l.53273.013v.00008h.00007a47.28243 47.28243 0 0 0 2.26705-9.828c.4563-4.487.25447-8.81974-2.18961-12.7787a1.21464 1.21464 0 0 1-.0609-1.36482c.55276-1.07722 1.059-2.17839 1.5842-3.26969l.0007-.003c-.02514-.01054-.04869-.02169-.07559-.03089z" class="cls-5"/><path d="M166.05532 175.72939a5.998 5.998 0 0 0-.37628-1.71428c-.122-.36763-.22421-.738-.34034-1.10639-.10535.01092-.21165.02035-.31687.03158.38353 1.17923.79319 2.35485 1.23771 3.52544.0142-1.21791.02262-2.43543.03549-3.6524-.09647.00928-.19247.01934-.28877.02886q.01814 1.44302.04906 2.88719zm32.9074-65.80763a14.8562 14.8562 0 0 1 3.93549-.69049 10.42757 10.42757 0 0 1-1.03456 2.09431 16.12225 16.12225 0 0 0-1.9215 4.91334 11.64055 11.64055 0 0 0 .13429 5.90954c.3688 1.19709 1.02076 1.465 2.19757 1.05668a4.58206 4.58206 0 0 0 1.49475-.91563 9.70071 9.70071 0 0 0 2.89385-4.66536 38.7877 38.7877 0 0 0 1.119-11.23425c.33432 1.01146.80692 2.08884 1.22321 3.18664.14068.37091.26975.83742.8006.82548l-2.18423-5.25695c-.23911 1.54427-.15036 3.0317-.2586 4.50471a30.08943 30.08943 0 0 1-1.05008 7.87283 8.29273 8.29273 0 0 1-4.2037 5.37282c-.95306.43906-1.46937.13906-1.71179-.796a12.56428 12.56428 0 0 1-.14981-5.50362 19.39463 19.39463 0 0 1 2.8663-6.68255c.1965-.31444.42892-.70967.26094-1.00516-.19052-.335-.66967-.18365-1.00189-.12556a19.15 19.15 0 0 0-4.81774 1.27617c.50654.35468.95543-.00197 1.4079-.13695z" class="cls-5"/><path d="M167.12762 107.5903a37.72043 37.72043 0 0 1 5.356 9.90093 51.56578 51.56578 0 0 1 3.9294-11.71559.44755.44755 0 0 0 .02731-.06792c.00577-.00851.01505-.02278.03346-.05335.22742-.37635.36263-.9756.86393-.93263.5434.04663.51806.67637.58754 1.09134a56.01166 56.01166 0 0 0 1.76233 7.80873 28.30221 28.30221 0 0 0 1.80327 4.537c.38283.73385.73915.70147 1.13688.03759 2.43908-4.07118 3.91809-8.35011 2.92634-13.19015-.11776-.57475-.57047-1.18632-.03315-1.78881.04344.00264.08353.00872.124.01451l-.03166-.29h.00016l-.00016-.00008a2.43354 2.43354 0 0 0-1.24232-.98287 16.274 16.274 0 0 0-4.73-1.15115v.0004q-1.19575-.00116-2.39159-.002v-.00038a15.1324 15.1324 0 0 0-10.92179 6.06161v.00014a2.73961 2.73961 0 0 1 .80005.72268z" class="cls-6"/><path d="M185.52092 103.21747c-.53733.60243-.08462 1.214.03314 1.78881.99175 4.84-.48726 9.119-2.92634 13.19015-.39773.66389-.75405.69626-1.13688-.03759a28.30221 28.30221 0 0 1-1.80327-4.537 56.01166 56.01166 0 0 1-1.76233-7.80873c-.0695-.415-.04414-1.0447-.58754-1.09134-.5013-.043-.63645.55628-.86393.93263-.01841.03058-.02769.04485-.03346.05334a.44766.44766 0 0 1-.02731.06793 51.56578 51.56578 0 0 0-3.9294 11.71559 37.72049 37.72049 0 0 0-5.356-9.90094 2.73961 2.73961 0 0 0-.8-.72276c.042.48905.40966.79623.666 1.15925a39.468 39.468 0 0 1 4.20369 7.11388c.42729.995.833 1.99932 1.38745 3.33382a52.05227 52.05227 0 0 1 4.79988-13.73091c.14957.90012.26406 1.58866.37846 2.27727a41.2398 41.2398 0 0 0 3.64152 11.857c.26733.53335.502 1.07433 1.05468.22264a21.06521 21.06521 0 0 0 3.75307-10.44793 35.002 35.002 0 0 0-.56555-5.403l-.00188-.01755c-.04048-.00583-.08057-.01191-.124-.01456zm-5.9196-19.34754l.00179-.0007c.5863-.2235 1.1765-.43741 1.75827-.67208a6.947 6.947 0 1 0-9.62689-6.72285c-.097 3.55125 1.61446 5.78873 5.52959 7.22913a5.31011 5.31011 0 0 1 2.33724.1665z" class="cls-6"/><path d="M179.64093 100.80786l-.03766-16.93722-.002-.0007a2.19639 2.19639 0 0 1-2.33724-.1665l-.01474 17.1024a2.19281 2.19281 0 0 1 2.39164.00202z" class="cls-7"/><path d="M179.64093 100.80825v-.0004a2.19281 2.19281 0 0 0-2.39159-.002v.00038q1.19576.00129 2.39159.00202zm-.03961-16.93832a5.31011 5.31011 0 0 0-2.33724-.1665 2.19639 2.19639 0 0 0 2.33724.1665z" class="cls-7"/><path d="M185.66269 103.23408c.85411.1318 1.03534.94456 1.3444 1.55175a60.01412 60.01412 0 0 1 4.46493 10.07758c.78446-.56531.97436-1.49834 1.76-1.79212-.27163-.23176-.22725-.57351-.29619-.87268a14.75252 14.75252 0 0 0-4.74521-7.83115c-.7344-.65345-1.43424-1.468-2.57716-1.42551a.20736.20736 0 0 1 .08469.19817.19419.19419 0 0 1-.03546.09396z" class="cls-6"/><path d="M191.472 114.86342a60.01225 60.01225 0 0 0-4.46493-10.07759c-.30907-.60719-.49029-1.41995-1.3444-1.55175-.00522.00576-.01013.01543-.0159.01543a58.35014 58.35014 0 0 1 5.854 12.48734c.66383-1.022 1.19755-1.84375 1.73121-2.66556-.7856.29378-.97548 1.22681-1.75998 1.79213z" class="cls-6"/><path d="M185.64491 103.232l.01778.00211a.194.194 0 0 0 .03541-.094.20736.20736 0 0 0-.08469-.19817h-.00016zm0 0l.00187.01755c.00578 0 .01069-.00967.01591-.01543z" class="cls-6"/><path d="M157.73968 101.50919a35.05547 35.05547 0 0 0 .70429 7.78955 81.15354 81.15354 0 0 0-.55768-9.25581l-.00008.00007a.85824.85824 0 0 0-.22871.39391c.31317.27573.08662.74068.08218 1.07228z" class="cls-8"/><path d="M157.65748 100.43688a.85824.85824 0 0 1 .22871-.39391q-.26472.12-.52952.24028a.7788.7788 0 0 1 .30081.15363zm0 0c-.01872.06261-.03369.12673-.04632.19184a.82858.82858 0 0 1-.03681.49575 6.87378 6.87378 0 0 0-.18374 3.31792c.2292 1.63434.0511 3.38318 1.05336 4.85634a35.05547 35.05547 0 0 1-.70429-7.78955c.00444-.33159.23099-.79654-.0822-1.0723z" class="cls-8"/><path d="M157.61116 100.62872c.01261-.06517.0276-.12922.04632-.19184a.77886.77886 0 0 0-.30079-.15363l-.00039.00023a.598.598 0 0 1 .25486.34524z" class="cls-8"/><path d="M145.98 105.23824c.16227-.589.21937-1.23982.79233-1.63014-.60875-.63792-.38406-1.42153-.30724-2.15085a39.64031 39.64031 0 0 0-.00484-8.26667c-.24245-2.3416-.13374-4.69856-.28433-7.052a204.60245 204.60245 0 0 0-2.98718-24.24886 94.63714 94.63714 0 0 0-8.45913-25.59187 34.403 34.403 0 0 0-9.63383-12.12845 15.75009 15.75009 0 0 0-12.70648-3.03075c-8.45174 1.40585-14.33732 6.05459-17.31475 14.26565a36.32641 36.32641 0 0 0-2.32 13.98046A98.00368 98.00368 0 0 0 95.10416 66.045a166.005 166.005 0 0 0 10.80075 33.01551 180.10165 180.10165 0 0 0 20.82365 35.58674 51.248 51.248 0 0 0 8.01132 8.47372c1.91572 1.5878 2.98038 1.46449 4.22894-.69651a48.95332 48.95332 0 0 0 4.98174-13.74945 36.1673 36.1673 0 0 1 1.14356-4.72415c.02231.00336.04157.00874.06239.01311a4.27584 4.27584 0 0 1-.68206-2.785 50.06293 50.06293 0 0 1 1.50555-15.94073z" class="cls-6"/><path d="M145.094 123.95081a36.16733 36.16733 0 0 0-1.14357 4.72415 48.9527 48.9527 0 0 1-4.98174 13.74945c-1.24855 2.161-2.31322 2.2843-4.22894.69651a51.2484 51.2484 0 0 1-8.01132-8.47372 180.10129 180.10129 0 0 1-20.82371-35.58676A166.00359 166.00359 0 0 1 95.104 66.04494a98.0037 98.0037 0 0 1-2.34964-16.66021 36.32678 36.32678 0 0 1 2.32-13.98046c2.97751-8.21106 8.863-12.8598 17.31475-14.26565a15.75013 15.75013 0 0 1 12.70647 3.03075 34.40312 34.40312 0 0 1 9.63384 12.12845 94.63783 94.63783 0 0 1 8.45913 25.59187 204.60243 204.60243 0 0 1 2.98717 24.24886c.15059 2.35346.04188 4.71042.28434 7.052a39.64021 39.64021 0 0 1 .00483 8.26666c-.07681.72932-.30153 1.51293.30725 2.15085l.02271-.01789c.07058-3.65573.18264-7.30182.04188-10.96923-.23766-6.19279-.69158-12.354-1.41638-18.5056a137.76355 137.76355 0 0 0-3.87278-21.00106c-2.30854-8.26979-5.25339-16.313-10.3741-23.29806-4.85023-6.616-11.05957-10.72447-19.77191-8.90778-6.25377 1.304-11.40239 4.392-14.64724 10.04583a34.0302 34.0302 0 0 0-4.35942 16.32864 60.38308 60.38308 0 0 0 .72488 9.445A145.54739 145.54739 0 0 0 99.009 82.002a184.07548 184.07548 0 0 0 20.72322 43.33686c4.19127 6.53093 8.68365 12.8141 14.59982 17.94743 2.24888 1.95129 3.53456 1.857 4.95842-.67768a53.95432 53.95432 0 0 0 5.88677-18.61883l-.0209-.02581c-.02074-.00443-.04-.00981-.06233-.01316z" class="cls-6"/><path d="M145.98 105.23824a50.06291 50.06291 0 0 0-1.5056 15.94071 4.27579 4.27579 0 0 0 .68207 2.785l.01869.0039c-.12462-1.2523-.28689-2.50195-.36542-3.75682a50.98375 50.98375 0 0 1 1.97649-16.58758l-.01388-.01534c-.57303.39031-.63009 1.04118-.79235 1.63013z" class="cls-6"/><path d="M145.17513 123.96781l-.01869-.0039.0209.02581.00007-.00023zm1.61109-20.3444l.00882-.03323-.02272.01789zm63.02825 6.80035a1.19279 1.19279 0 0 1 .63886.82735c1.38043 4.48848 2.68724 9.00083 2.48829 13.76226-.05825 1.39455.09827 2.90247-.93544 4.1019.72831.30048.7039 1.04229.86526 1.64629a50.54328 50.54328 0 0 0 4.07024 10.93168c1.60939 3.00783 2.59623 3.16 5.1576.981a67.56774 67.56774 0 0 0 11.43531-13.40281 184.86488 184.86488 0 0 0 20.67779-39.38913 150.29829 150.29829 0 0 0 9.052-36.31844 36.70457 36.70457 0 0 0-3.301-21.16716 21.29433 21.29433 0 0 0-21.45369-11.34126 16.91962 16.91962 0 0 0-9.37695 4.891C224.47307 30.21673 221.69 35.702 219.245 41.396a107.92506 107.92506 0 0 0-7.37825 28.05138c-.78048 5.65078-1.44024 11.31233-1.69151 17.02136-.167 3.79612-.63309 7.59334-.44721 11.38689.146 2.97991.09335 5.97068.42019 8.94647a6.19138 6.19138 0 0 1-.24184 3.598.85664.85664 0 0 1-.09177.00172l-.00017.02171z" class="cls-6"/><path d="M210.14825 106.80209c-.32682-2.97581-.2742-5.96655-.42019-8.94647-.18592-3.79355.2801-7.59075.44721-11.38689.25127-5.709.911-11.37058 1.69151-17.02136A107.92506 107.92506 0 0 1 219.245 41.396c2.445-5.694 5.2281-11.17928 9.88776-15.44955a16.91955 16.91955 0 0 1 9.37695-4.891A21.29434 21.29434 0 0 1 259.9634 32.3967a36.70461 36.70461 0 0 1 3.301 21.16717 150.29736 150.29736 0 0 1-9.052 36.31844 184.865 184.865 0 0 1-20.67787 39.38914 67.5674 67.5674 0 0 1-11.43531 13.4028c-2.56137 2.17907-3.54823 2.02686-5.1576-.981a50.54328 50.54328 0 0 1-4.07024-10.93168c-.16136-.604-.137-1.34581-.86526-1.64629l-.002.00255c.10427.29564.23482.58482.30875.88786a47.92352 47.92352 0 0 0 4.67923 12.53156c1.44165 2.53064 2.74261 2.68661 4.97091.78953a56.88146 56.88146 0 0 0 8.47473-9.14977 180.47206 180.47206 0 0 0 22.10393-39.14659 157.46 157.46 0 0 0 10.6948-38.37528 45.06116 45.06116 0 0 0-.36032-17.34913c-1.35609-5.56852-3.68161-10.68516-8.42557-14.17394-5.05763-3.71939-10.78062-5.51432-17.0897-4.20937-4.84215 1.00149-8.46592 4.09137-11.40459 7.85856-5.40177 6.925-8.52879 14.99615-10.88114 23.345-3.6318 12.88982-5.021 26.11991-5.53411 39.4644-.106 2.75812-.26449 5.51148-.14381 8.27149.15373 3.51272.498 7.01788.4174 10.53965a.85664.85664 0 0 0 .09177-.00172 6.19141 6.19141 0 0 0 .24185-3.59799z" class="cls-6"/><path d="M212.94162 125.01336c.19895-4.76143-1.10786-9.27377-2.48829-13.76226a1.19279 1.19279 0 0 0-.63886-.82735c.43375 1.46917.89457 2.93125 1.2962 4.40941 1.27655 4.69717 2.07934 9.42842.89419 14.28156l.00128.00054c1.03378-1.19942.87723-2.70735.93548-4.1019z" class="cls-6"/><path d="M212.005 129.115l-.001.003.002-.003h-.001z" class="cls-6"/><path d="M209.87062 156.34592c.04234.2144-.15717.57953.198.59738.28863.01451.30953-.33371.33464-.58426a.34841.34841 0 0 1-.53268-.01312z" class="cls-9"/><path d="M209.87062 156.34592a.34841.34841 0 0 0 .53272.01312v-.00004z" class="cls-9"/><path d="M214.46282 308.72479a16.41528 16.41528 0 0 0 5.5795-8.95144 9.56246 9.56246 0 0 0 .16964-5.74464c-1.50078-3.79549-7.30954-7.66976-11.39608-7.71382-5.70857-.06159-9.76415 3.90881-10.09052 10.03219a29.838 29.838 0 0 1-4.24579 13.84515 92.30707 92.30707 0 0 1 14.11459 2.9311 60.44286 60.44286 0 0 0 5.86866-4.39854z" class="cls-5"/><path d="M189.45975 317.80282a2.09266 2.09266 0 0 0 1.00087 3.409 3.14769 3.14769 0 0 0 2.63561-.00983 92.69035 92.69035 0 0 0 15.49791-8.07864 92.30707 92.30707 0 0 0-14.11459-2.9311c-.11961.20136-.22881.40607-.35328.60589-1.4829 2.38013-3.11889 4.66442-4.66652 7.00468zm-27.5093-21.86374a9.78519 9.78519 0 0 0-9.80577-9.626 11.69859 11.69859 0 0 0-8.1022 3.29046 10.91383 10.91383 0 0 0-1.82806 14.511 26.36881 26.36881 0 0 0 5.647 6.01807c.97106.77994 1.97468 1.50373 2.99162 2.20474a100.98282 100.98282 0 0 1 14.93812-2.57076 31.22446 31.22446 0 0 1-3.84071-13.82751z" class="cls-5"/><path d="M168.51261 321.36968a2.91832 2.91832 0 0 0 2.8902-1.14468c.72434-.88475.16159-1.77182-.38494-2.473-.85636-1.09859-1.28208-2.508-2.12357-3.50523a28.92788 28.92788 0 0 1-3.10306-4.48014 100.9832 100.9832 0 0 0-14.93813 2.57077 110.08931 110.08931 0 0 0 15.06829 8.2426 10.8322 10.8322 0 0 0 2.59121.78968zM151.5 217.09c-1.6434-2.12621-1.43775-4.479.58029-6.59722.25-.26243.50239-.52454.77292-.76505a3.12472 3.12472 0 0 0 1.206-3.48487 3.68683 3.68683 0 0 0-3.00955-2.62018 16.76405 16.76405 0 0 0-19.129 14.00526q-.05715.36936-.09774.741a16.91865 16.91865 0 0 0 8.9825 16.74837c2.67655 1.30665 5.52468 1.21689 8.48066 1.44765a14.72977 14.72977 0 0 0 12.19512-5.75279 13.39336 13.39336 0 0 0 3.06653-10.8943c-.402-2.73379-2.48134-3.57942-4.76526-2.11061-.456.29323-.894.61851-1.36779.879-2.63409 1.44839-4.98575.89947-6.91468-1.59626zm43.16063 14.87878c3.22768 3.48436 7.43417 4.42329 11.69165 4.50463.94262 0 1.62271.01052 2.30222-.00156 7.74079-.13819 15.02719-7.624 14.94423-15.34974-.03517-3.27767-2.26884-4.66691-5.212-3.21731a16.2967 16.2967 0 0 1-3.08058 1.38186 5.10467 5.10467 0 0 1-5.64844-2.52121 4.48489 4.48489 0 0 1 .30765-5.7538c.49482-.58864 1.069-1.11154 1.55286-1.70832a3.31359 3.31359 0 0 0-2.12869-5.61421 16.49379 16.49379 0 0 0-14.47169 4.5451c-4.17778 3.85469-4.899 8.92728-4.23947 14.25543a16.43329 16.43329 0 0 0 3.98226 9.47913z" class="cls-5"/></svg>