<svg xmlns="http://www.w3.org/2000/svg" xml:space="preserve" viewBox="0 0 512 512"><path d="M256 0C114.6 0 0 114.6 0 256s114.6 256 256 256 256-114.6 256-256S397.4 0 256 0m0 479.1c-40.2 0-72.8-26.9-72.8-60h145.7c-.1 33.1-32.7 60-72.9 60m120.3-79.9H135.7v-43.6h240.6zm-.9-66h-239c-.8-.9-1.6-1.8-2.4-2.8-24.6-29.9-30.4-45.5-36.1-61.4-.1-.5 29.9 6.1 51.1 10.9 0 0 10.9 2.5 26.9 5.4-15.3-18-24.5-40.9-24.5-64.2 0-51.3 39.4-96.2 25.2-132.4 13.8 1.1 28.6 29.2 29.6 73 14.7-20.3 20.8-57.4 20.8-80.1 0-23.5 15.5-50.9 31-51.8-13.8 22.8 3.6 42.3 19.1 90.8 5.8 18.2 5.1 48.8 9.5 68.3 1.5-40.4 8.4-99.2 34-119.6-11.3 25.6 1.7 57.6 10.5 73 14.3 24.8 23 43.7 23 79.3 0 23.9-8.8 46.3-23.7 63.9 16.9-3.2 28.6-6 28.6-6l54.9-10.7c.2 0-7.8 32.8-38.5 64.4" style="fill:#e6522c"/></svg>