<svg xmlns="http://www.w3.org/2000/svg" viewBox="0 0 48 48"><defs><clipPath id="a" clipPathUnits="userSpaceOnUse"><path d="M0 102.654h203.005V0H0Z"/></clipPath></defs><g clip-path="url(#a)" transform="matrix(1.33333 0 0 -1.33333 0 136.872)"><path d="m0 0-33-35.677L8.473-16.543A33.5 33.5 0 0 1 0 0" style="fill:#da3522;fill-opacity:1;fill-rule:nonzero;stroke:none" transform="translate(31.112 96.955)scale(.53706)"/><path d="M0 0c-4.572 0-8.928-.917-12.9-2.572l-4.428-37.314L4.799-.347A34 34 0 0 1 0 0" style="fill:#da3522;fill-opacity:1;fill-rule:nonzero;stroke:none" transform="translate(17.962 102.654)scale(.53706)"/><path d="m0 0-39.298-21.992 36.87 4.375A33.46 33.46 0 0 1 0 0" style="fill:#da3522;fill-opacity:1;fill-rule:nonzero;stroke:none" transform="translate(35.839 86.966)scale(.53706)"/><path d="M0 0a33.75 33.75 0 0 1 10.612 11.619l-34.559-6.863Z" style="fill:#da3522;fill-opacity:1;fill-rule:nonzero;stroke:none" transform="translate(28.058 69.675)scale(.53706)"/><path d="m0 0-19.237-41.695L16.448-8.689C11.973-4.384 6.313-1.303 0 0" style="fill:#da3522;fill-opacity:1;fill-rule:nonzero;stroke:none" transform="translate(21.626 102.28)scale(.53706)"/><path d="M0 0a33.4 33.4 0 0 1 10.54 2.638L-8.818 4.935Z" style="fill:#da3522;fill-opacity:1;fill-rule:nonzero;stroke:none" transform="translate(19.47 66.654)scale(.53706)"/><path d="M0 0a33.4 33.4 0 0 1-2.829-10.792l5.215-9.32z" style="fill:#da3522;fill-opacity:1;fill-rule:nonzero;stroke:none" transform="translate(1.524 92.034)scale(.53706)"/><path d="M0 0a33.74 33.74 0 0 1-11.832-10.567l4.867-24.504z" style="fill:#da3522;fill-opacity:1;fill-rule:nonzero;stroke:none" transform="translate(9.471 100.531)scale(.53706)"/></g></svg>