<svg xmlns="http://www.w3.org/2000/svg" xml:space="preserve" viewBox="0.03 0 633.27 511.9"><linearGradient id="a" x1="62.23" x2="62.483" y1="81.873" y2="81.873" gradientTransform="scale(115.9464 -115.9464)rotate(30.578 187.04 -69.817)" gradientUnits="userSpaceOnUse"><stop offset="0" style="stop-color:#909ca9"/><stop offset="1" style="stop-color:#ededee"/></linearGradient><path d="m429.3 163-69.9 22.8-60.8 26.9-17 4.5c-4.3 4.1-8.9 8.3-13.8 12.5-5.4 4.7-10.4 8.9-14.3 11.9-4.3 3.4-10.6 9.7-13.8 13.7-4.8 6-8.6 12.4-10.3 17.3-2.9 8.9-1.5 17.9 4.1 26.2 7.2 10.6 21.5 21.4 38.2 28.7 8.5 3.8 22.8 8.6 33.6 11.3 17.9 4.5 52.6 9.5 71.7 10.2 3.9.2 9 .2 9.3 0 .4-.3 3.4-5.9 6.8-13 11.7-23.9 20.2-46.4 24.8-65.6 2.7-11.6 4.9-27.1 6.3-45.5.4-5.1.5-22.3.2-28.1-.5-9.5-1.3-17.2-2.6-24.8-.2-1.1-.3-2.1-.2-2.2.2-.2.8-.4 9.5-2.9zm-15.9 9.4c.6 0 2.3 16.2 2.7 26.5.1 2.2.1 3.6-.1 3.6-.4 0-8.9-5-15-8.8-5.3-3.3-15.3-10-16.9-11.3-.5-.4-.5-.4 3.9-1.9 7.4-2.5 24.8-8.1 25.4-8.1m-35.6 11.7c.5 0 1.7.7 4.6 2.5 10.9 6.8 25.7 15.1 32 17.8 2 .8 2.2.5-2.3 3.6-9.6 6.6-21.6 13-36.3 19.5-2.6 1.2-4.8 2.1-4.8 2.1-.1 0 .2-1.3.6-2.9 3.5-13.2 5.6-26.5 5.7-37.2 0-5.3 0-5.3.5-5.4-.2 0-.1 0 0 0m-7.4 2.8c.3.3.1 12.2-.3 15.4-1 7.7-2.4 14.9-4.9 23-.6 2-1.1 3.6-1.2 3.7-.2.3-7.5-6.8-9.8-9.6-4.1-4.8-7.3-9.5-9.7-14.2-1.2-2.4-3.1-7-3-7.2.8-.5 28.7-11.3 28.9-11.1m-34.6 13.6c.1 0 .1 0 .2.1s.5 1 .8 1.9c1.7 4.6 5.5 11.4 8.8 15.7 3.6 4.8 8.3 9.8 12.2 13.2 1.3 1.1 2.4 2.1 2.6 2.2.3.3.4.3-8.2 3.5-10 3.8-20.9 7.6-33.4 11.6-3 1-6 1.9-8.9 2.9-.5.2-.3-.1 1.1-2.3 6.2-9.7 15.6-28.7 20.9-42.1.9-2.3 1.8-4.7 2-5.2.2-.7.5-1 1.2-1.4.2 0 .6-.1.7-.1m-10.5 4.4c.2.1-2.5 5.8-5.2 10.9-5.1 10-10.7 19.8-18.2 31.8-1.3 2.1-2.5 4-2.6 4.2-.3.4-.4.3-1.2-1.4-1.8-3.5-3.3-8.1-4.1-12.3-.8-4.1-.6-11.3.3-15.8.7-3.3.6-3.2 2.2-4 6.7-3.4 28.5-13.6 28.8-13.4m91.1 3.7v2.2c0 11.8-1.3 28-3.1 39.8-.3 2.1-.6 3.8-.6 3.8s-1.5-.4-3.3-1c-7.9-2.5-16.5-6.1-24.3-10.4-5.1-2.8-12.6-7.4-12.4-7.6.1-.1 2.3-1.2 4.9-2.6 10.4-5.4 20.3-11.2 28.9-17 3.2-2.2 8.1-5.7 9.1-6.6zm-131.1 15.6c.2 0 .2.4-.2 2.3-.2 1.4-.5 3.9-.6 5.7-.4 7.7.8 13.4 4.7 21.3 1.1 2.2 1.9 4 1.9 4-.4.3-35.4 10.6-46.4 13.6-3.3.9-6.1 1.7-6.3 1.7-.4.1-.4.1-.3-.8 1.2-7.8 7.1-17.9 15.4-26.5 5.5-5.7 9.9-9 17.4-13.3 5.4-3.1 13.7-7.7 14.3-7.9 0-.1.1-.1.1-.1m82.5 14.8c.1-.1 1.3.6 2.9 1.5 11.3 6.6 27.1 12.6 40.5 15.8l1.2.3-1.7 1c-7 3.9-30.1 13.5-53.8 22.4-3.4 1.3-6.8 2.5-7.5 2.8-.6.3-1.2.4-1.2.4 0-.1 1-1.9 2.2-4.2 6.6-12.4 13.3-27.4 16.7-37.9zm-8.4 2.7c.1.1-.4 1.2-.9 2.4-4.6 11.2-10.6 23.3-18.3 37l-3.6 6.3c-.1 0-1.6-1-3.5-2.1-11.2-6.9-21.1-15.3-27.6-23.5l-1-1.2 4.8-1.3c17.2-4.7 31.9-9.8 46.4-16 2-.9 3.7-1.6 3.7-1.6m52.2 18.3s.1 0 0 0c.1 1.2-2.6 12.1-4.9 20-1.8 6.6-3.4 11.8-6.3 20.9-1.3 4-2.4 7.3-2.4 7.3-.1 0-.4-.1-.7-.2-15.7-2.9-29.8-6.8-43-12.1-3.7-1.5-9-3.9-9.3-4.1-.1-.1 3.1-1.6 7.1-3.3 24.1-10.5 49-22.5 57.6-27.6 1-.6 1.8-.9 1.9-.9m-120.5 4.1c.1.1-6.6 9.8-16 22.9-3.3 4.6-7.1 10-8.5 12s-3.6 5.2-4.8 7.1l-2.2 3.4-2.4-2c-2.8-2.3-7.7-7.3-9.8-10-4.5-5.7-7.6-11.6-8.8-17.1-.6-2.5-.6-3.8-.1-4 .8-.2 14.9-3.5 28.1-6.6 7.3-1.7 15.9-3.7 18.9-4.4s5.5-1.3 5.6-1.3m6.7 2.6 1.7 1.9c7.6 8.5 15.4 14.8 24.8 20.3 1.7 1 3 1.8 2.9 1.9-.4.3-32.7 11.7-47.6 16.9-8.4 3-15.3 5.3-15.4 5.3s-.5-.3-1.1-.7l-1-.7 1.5-2.2c5-7.2 11.2-15.1 24.8-31.5zm42.2 30.2c.1-.1 2.4.8 5.2 1.9 6.9 2.6 12.3 4.2 19.6 6.1 9 2.3 22 4.5 29.7 5.1 1.2.1 1.8.2 1.6.4-.4.2-8.1 2.8-13.8 4.6-9.1 2.9-36.8 11-59.5 17.6-4.2 1.2-7.8 2.2-8 2.3-.5.1-2.3-.4-2.3-.6 0-.1 1.3-1.7 2.8-3.5 7.6-9.1 15.2-19.2 21.5-28.9 1.7-2.8 3.2-5 3.2-5m-9.3.2c.1.1-3.7 6.1-10.3 16.4-2.8 4.4-5.9 9.4-7 11.1s-2.6 4.3-3.5 5.8l-1.5 2.7-.8-.2c-1.9-.5-15.3-5.2-18.8-6.7-4.4-1.7-8.9-3.9-12.3-5.7-4.2-2.3-9.5-5.7-9.1-5.8.1-.1 7.3-2 16.1-4.4 23.2-6.3 36-9.9 44.4-12.6 1.4-.2 2.8-.6 2.8-.6m65.8 15.5c.3.5-8.3 24.3-11.4 31.8-.7 1.7-.9 2.1-1.3 2.1-.9-.1-13.3-1.8-20.9-2.9-13.2-2-35.3-5.9-40.8-7.1l-1.3-.3 7.9-1.8c16.9-3.8 25.1-5.9 33.3-8.4 10.4-3.2 20.7-7.1 31.1-12 1.7-.8 3-1.4 3.4-1.4" style="fill:url(#a)"/><linearGradient id="b" x1="61.44" x2="61.693" y1="73.151" y2="73.151" gradientTransform="matrix(80.3196 0 0 -80.3196 -4653.717 5908.5)" gradientUnits="userSpaceOnUse"><stop offset="0" style="stop-color:#939fab"/><stop offset="1" style="stop-color:#dcdee1"/></linearGradient><path d="M357.2 0c-1.2-.2-19.9 6.6-32 11.5-16.3 6.7-29 13-36.8 18.5-2.9 2.1-6.6 5.7-7.1 7.1-.2.5-.3 1.2-.3 1.8l7.1 6.7L305 51l40.1 7.2 45.9 7.9.5-4c-.2 0-.3-.1-.4-.1l-6-1-1.2-2.2c-6.2-11-13.1-24.6-17.1-33.8-3.1-7.1-6.1-15.4-7.7-21.3-1.2-3.4-1.3-3.6-1.9-3.7m-.8 2.7c.1.1.3 1.5.5 3.3.9 7.4 2.5 14.5 5.1 22.3 2 5.8 2 5.5-.3 4.8-5.4-1.5-29.5-5.7-47-8.1-2.8-.4-5.2-.7-5.2-.8-.2-.2 12.6-6.9 18.3-9.6C335 11.3 354.9 3 356.4 2.7m-51 23.7 2.1.7c11.2 3.8 39.4 9.2 54.9 10.5 1.7.2 3.2.3 3.3.3.1.1-1.4.8-3.3 1.7-7.5 3.8-15.8 8.4-21.5 11.9-1.7 1.1-3.2 1.9-3.4 1.9s-1.3-.2-2.5-.4l-2.1-.3-5.3-5.2c-9.3-9-16.6-16-19.4-18.7zm-2.1 1.6 7.5 9.3c4.1 5.1 8.2 10.1 9.1 11.3.9 1.1 1.6 2 1.6 2.1-.2.2-10.8-1.9-16.4-3.2-5.8-1.3-8.1-2-11.7-3.1l-2.9-1v-.7c.1-3.5 4.5-8.8 12.2-14.2zm63.4 12.7c.2 0 .5.5 1.1 1.9 1.8 4 7.4 14.6 8.8 16.7.4.7 1.2.7-6.3-.5-17.9-2.9-23.7-3.9-23.7-4s.5-.4 1.2-.8c5.6-3.1 11.2-7 16.1-11.2 1.2-1 2.3-2 2.5-2.1z" style="fill:url(#b)"/><radialGradient id="c" cx="62.555" cy="82.145" r=".146" gradientTransform="matrix(-177.6748 -26.6887 -53.9771 355.3494 15932.146 -27394.307)" gradientUnits="userSpaceOnUse"><stop offset="0" style="stop-color:#ee352c"/><stop offset="1" style="stop-color:#a91d22"/></radialGradient><path d="M281.6 36.4s-1.2 1.9-.1 4.6c.7 1.7 2.7 3.8 5 5.9 0 0 23.5 22.9 26.4 26.2 13 15 18.7 29.8 19.2 50.2.3 13.1-2.2 24.6-8.4 38-11 24-34.2 50.5-70 79.9l5.2-1.7c3.4-2.5 8-5.2 18.8-11.2 24.9-13.6 52.9-26.2 87.3-39.1 49.5-18.6 130.8-40.4 177.1-47.5l4.8-.7-.7-1.2c-4.2-6.6-7.1-10.6-10.6-15-10.1-12.6-22.5-22.8-37.5-31.2C477.4 82 450.6 73 416.6 66.3c-6.4-1.3-20.5-3.7-31.9-5.4-24.2-3.8-39.9-6.3-57.1-9.3-6.2-1.1-15.4-2.6-21.6-4-3.2-.7-9.3-2.1-14-3.8-3.7-1.4-9.2-2.9-10.4-7.4m13.6 13.2c.1-.1.9.3 2 .6 2 .7 4.6 1.5 7.7 2.3 2.3.6 4.6 1.3 7 1.9 3.2.8 5.8 1.5 5.9 1.5.4.4 5.7 17.4 7.5 24 .7 2.5 1.2 4.6 1.2 4.6-.1.1-.6-.8-1.3-2.1-6.2-10.9-16-21.9-27.3-30.8-1.6-1-2.7-1.9-2.7-2m26 7.2c.3 0 1.4.2 2.9.5 9 2 25.1 5.1 35.4 6.8 1.7.3 3.1.6 3.1.7s-.6.5-1.4.9c-1.7.9-8.8 5.1-11.1 6.7-5.9 3.9-11.2 8.1-15 11.9-1.5 1.5-2.9 2.8-2.9 2.8s-.3-.9-.6-2c-1.9-7.3-5.9-18.2-9.5-25.9-.4-1.2-.9-2.3-.9-2.4 0 .1 0 0 0 0m45.8 8.8c.3.1.8 1.9 1.9 5.9 2 7.7 2.9 16.2 2.5 24.2-.1 2.2-.2 4.3-.3 4.5l-.2.5-2.7-.9c-5.7-1.8-14.9-4.5-22.7-6.7-4.5-1.2-8.1-2.3-8.1-2.4 0-.3 6.6-6.9 9.4-9.4 5.3-4.7 19.7-15.9 20.2-15.7m3.7.5c.2-.2 21.9 3.6 31.8 5.5 7.3 1.4 18 3.6 18.7 3.9.3.1-.8.7-4.3 2.3-14 6.3-24.3 11.9-34.6 18.8-2.7 1.8-5 3.3-5 3.3-.1 0-.1-1.5-.1-3.4 0-10-2-20.2-5.7-28.8-.6-.8-.9-1.6-.8-1.6m56.2 11.1c.2.2-.5 4.4-1.2 7-1.9 7.9-7 19.6-13.3 30.6-1.1 2-2.1 3.5-2.2 3.6s-1.5-.7-3.2-1.7c-6.1-3.6-13.1-7-20.7-10.1-2.1-.9-4-1.6-4-1.7-.4-.3 16.7-11.6 25.6-17 7.1-4.5 18.7-10.9 19-10.7m4 .6c.5 0 10.1 2.6 15.1 4.1 12.4 3.7 26.7 8.9 36 13.2l3.9 1.7-2.7.6c-22.7 5.2-42.2 11.3-60.9 18.9-1.5.6-2.9 1.2-3 1.2s.4-1.2 1.1-2.7c5.7-12 9.3-24.5 10.2-35.2 0-1 .1-1.8.3-1.8m-95.8 22c.2-.2 7.5 1.6 11.5 2.7 6 1.7 18.8 6 18.8 6.3 0 .1-1.4 1.3-3.1 2.7-6.9 5.8-13.6 11.8-21.6 19.6-2.4 2.3-4.4 4.1-4.5 4.1s-.2-.3-.1-.7c1.2-8.9 1-20.3-.7-31.9-.2-1.5-.4-2.7-.3-2.8m154.4.2c.1.1-3.4 5.6-5.6 8.7-3.2 4.5-7.8 10.6-18.3 23.8-5.5 7-11.8 14.9-13.8 17.5-2.1 2.6-3.9 4.9-3.9 4.9-.1 0-.7-1-1.5-2.1-5.9-8.9-13-16.7-21.4-23.6-1.6-1.3-3.3-2.7-3.9-3.2-.6-.4-1.1-.8-1.1-.9 0-.2 9-4 15.8-6.8 11.9-4.9 28.2-10.7 40.4-14.4 6.4-2.1 13.2-4 13.3-3.9m4.1 1c.2-.1 1.5.6 3 1.5 12.8 7.3 25.4 16.8 35.4 26.5 2.8 2.7 9.7 9.9 9.6 10 0 0-2.4.2-5.3.4-22.3 1.7-50.7 6.4-78.1 13-1.9.4-3.5.8-3.6.8s2-2.1 4.5-4.5c16.1-15.5 23.4-25.3 32.1-42.7 1.2-2.6 2.3-4.8 2.4-5q-.15 0 0 0m-117.8 12.1c.7.2 7.6 3.4 12.8 6 4.8 2.4 11.9 6.2 12.3 6.5.1.1-2.5 1.4-5.6 2.9-9.9 5-18.4 9.7-27.3 15.1-2.5 1.5-4.7 2.8-4.7 2.8-.2 0-.2-.2 1.3-2.8 4.8-8.7 8.6-19 10.7-29.1.2-.9.4-1.4.5-1.4m-6.8 1.2c.2.2-1.6 6.7-2.7 10.2-2.2 6.7-5.8 15.1-9.4 21.5-.8 1.5-2.1 3.6-2.8 4.9l-1.3 2.1-3-2.9c-3.4-3.3-6.2-5.4-9.8-7.2-1.4-.7-2.5-1.4-2.5-1.5 0-.4 9-8.6 16-14.5 4.9-4.3 15.3-12.7 15.5-12.6m42 17.3 2.6 1.7c5.9 3.9 12.9 9 18.2 13.5 3 2.5 8.8 7.7 10 9l.6.7-4.3 1.2c-24.2 6.7-42.9 12.7-64.8 20.7-2.4.9-4.5 1.6-4.7 1.6-.3 0-.6.3 4.9-4.8 14-12.8 26.3-27 35.5-40.8zm-11 2.8c.1.1-7.1 10.3-11.5 16.1-5.2 6.9-14.4 18.4-20.7 25.9-2.6 3.1-4.9 5.7-5 5.8-.2.1-.2-.7-.2-2 0-6.4-1.6-13.2-4.5-19-1.2-2.4-1.4-3-1.2-3.3 1-.9 16.4-9.7 26.1-14.9 6.5-3.5 16.8-8.7 17-8.6m-66.9 16.4c.2 0 1.4.6 2.7 1.4 3.4 1.8 6.4 3.9 9.1 6.1.1.1-1.3 1.2-3.1 2.5-5 3.6-12.6 9.4-17.1 12.9-4.7 3.7-4.8 3.8-4.3 3 3.5-5.3 5.2-8.4 7.1-12.2 1.6-3.4 3.3-7.5 4.4-11 .6-1.6 1.1-2.7 1.2-2.7m17.9 13.9c.3-.1.6.4 2 2.5 3 4.5 5.3 10.5 5.9 15.4l.1 1.1-7.2 2.8c-13 5-24.9 10-33 13.7-2.3 1.1-6.2 3-8.8 4.2-2.6 1.3-4.7 2.3-4.7 2.3 0-.1 1.6-1.3 3.6-2.7 15.8-11.5 29.5-24.1 39.8-36.6 1.1-1.3 2.1-2.5 2.2-2.6zm-8.2 2c.2.2-5.8 7-9.9 11.2-10.2 10.4-20.3 18.6-32.8 26.5-1.6 1-3 1.9-3.2 2-.4.2.1-.3 5.6-6.3 3.5-3.8 6.1-6.9 9.1-10.8 2-2.6 2.4-3 5.3-5 7.7-5.6 25.6-17.8 25.9-17.6" style="fill:url(#c)"/><path d="M113.8 385.6c-1 0-2 .1-2.9.1-19.7 1-33 9.7-40.7 26.6-6.6 15.3-5.9 35.3.1 50.7 7 15.1 18.2 23 37 26 4 .7 6.6 2.8 14.3 11.8l9.5 11.1h17.2l-11.4-11.5c-6.3-6.3-11.4-11.8-11.4-12.3s2.4-1.5 5.3-2.4c9.6-2.9 17.7-10.4 23.3-21.8 4.5-9.2 5.2-12 5.8-23.4 1.7-33.9-16.2-55.1-46.1-54.9m15.1 88.8c-8.4 4-20.5 4.9-28.4 2-8.2-3-16.1-11.5-19.7-21.2-4-10.5-3.4-30 1.1-38.7 7.3-13.9 16.9-20.3 31-20.3 20.9 0 32.8 12.8 34.3 36.9 1.3 20-5.4 35.1-18.3 41.3m296.9-59.8c-7.2 0-12.7 2.9-16.4 8.7l-2.9 4.6V416H394v71h12.5v-22.7c0-20.7.3-23.2 3.2-28.8 4-7.8 10.9-11.7 17.5-9.8l4.5 1.3v-12.3zm-73.3-.6c-2.4 0-5 .3-7.6.9-16.7 4.4-26.1 20.3-25.5 36.8 0 13.8 2.7 20.7 9.3 27.9 13.6 11.2 25.9 12.1 42.5 6.1 2.8-1.2 5.9-2.6 5.9-2.6v-11.2l-5.9 3.1c-13.4 5.9-23.6 5.9-31.7-1-5.2-5.3-7.5-11.6-8.5-18.8h50.3v-9.6c0-19.6-11.7-31.9-28.8-31.6m-20.3 31.1s1.9-12.2 8.8-16.9c3.3-2.3 7.1-3.5 10.9-3.5 3.7 0 7.5 1.2 10.5 3.6 6.3 4.9 7.4 16.8 7.4 16.8zM31.4 432.3c-13.5-8.2-19.5-14.1-18.8-21.1 2.1-19.3 25.9-16.6 39.1-9.3l.1-13s-7.3-3.2-17.7-3.3c-16-.2-26.4 5-31.3 15.7-7.1 15.8-.8 27.7 22 41 12.8 7.5 18.5 13.9 18.5 21 0 14.6-17.6 19.7-35.7 10.5-3.7-1.9-6.9-3.4-7.1-3.4-.7 4.1-.3 14-.3 14s5.6 2.3 13.9 4c20.7 4.1 39.6-5.6 41.4-21.4 1.6-14.8-3.8-22.6-24.1-34.7m504.8-18.5c-2.4 0-5 .3-7.7.9-16.7 4.4-26.1 20.3-25.4 36.8 0 13.8 2.7 20.6 9.3 27.8 13.6 11.2 25.9 12.1 42.6 6.1 2.8-1.2 5.9-2.6 5.9-2.6v-11.2l-5.9 3.1c-13.5 5.8-23.6 5.8-31.7-1.1-5.2-5.3-7.5-11.5-8.5-18.8H565v-9.6c.1-19.4-11.7-31.7-28.8-31.4m-20.3 31.1s1.9-12.2 8.8-17c3.3-2.3 7.1-3.5 10.8-3.5s7.5 1.2 10.5 3.6c6.3 4.9 7.4 16.9 7.4 16.9zm-228.7-12.5c-13.5-8.2-19.5-14.1-18.8-21.1 2.1-19.3 25.9-16.6 39.1-9.3l.1-13s-7.3-3.2-17.7-3.3c-16-.2-26.4 5-31.3 15.7-7.1 15.8-.7 27.7 22 41 12.8 7.5 18.5 13.8 18.5 20.9 0 14.6-17.6 19.8-35.7 10.5-3.7-1.9-6.9-3.4-7.1-3.4-.7 4.1-.3 14-.3 14s5.5 2.3 13.8 4c20.8 4.1 39.6-5.6 41.4-21.4 1.6-14.6-3.7-22.4-24-34.6m322.4-17.9c-7.2 0-12.8 2.9-16.4 8.7l-2.9 4.5v-11.8h-12.5v71h12.5v-22.7c0-20.7.2-23.2 3.2-28.8 4-7.8 10.9-11.7 17.5-9.8l4.5 1.3v-12.3zM188 432v-45.2h-12.6V487h52.9v-11.8H188zm290.9 14.1-10.4 27-10-27.1-10.1-30.1h-12.9c8.3 23.7 17.4 47.7 26.6 71 4 .1 7.9 0 11.9 0l14-35.2 14.3-35.9H490c0 .1-5.5 14.4-11.1 30.3M217 359.5c2 0 3.7-.6 5.1-2s2.1-3 2.1-5-.7-3.7-2.1-5-3-2-5-2-3.7.7-5.1 2c-1.4 1.4-2 3.1-2 5 0 2 .7 3.7 2 5 1.3 1.4 2.9 2 5 2m-4.5-11.5c1.2-1.2 2.7-1.8 4.6-1.8 1.8 0 3.2.6 4.5 1.8 1.2 1.2 1.9 2.7 1.9 4.5s-.7 3.3-1.9 4.5q-1.8 1.8-4.5 1.8t-4.5-1.8c-1.2-1.2-1.9-2.7-1.9-4.5q0-2.7 1.8-4.5m3 5.1h.8c.6 0 1.1.6 1.6 1.6l1 2.2h1.5l-1.2-2.4c-.5-1-1-1.5-1.5-1.7.7-.2 1.3-.4 1.7-.9.4-.4.6-1 .6-1.6 0-.7-.2-1.3-.7-1.7-.6-.5-1.4-.7-2.6-.7h-2.6v9.1h1.3v-3.8zm0-4.2h1.1c.8 0 1.4.2 1.7.4s.4.6.4 1.1c0 1-.7 1.5-1.9 1.5h-1.4zM7.7 352.3c0-3.2-.1-5.5-.2-6.9h.1c.3 1.6.7 2.9 1 3.7l12.1 27h2l12.1-27.2c.3-.7.7-1.9 1.1-3.4h.1q-.3 4.05-.3 6.9v23.8h4.1v-35.4h-5.2l-11.1 24.6c-.4 1-1 2.4-1.7 4.4h-.2c-.2-1-.8-2.4-1.6-4.2L9.2 340.7H3.7v35.4h4zm41.2.1h3.6v22h-3.6zm1.8-8.1c.7 0 1.4-.3 1.9-.7.5-.5.8-1.1.8-1.9 0-.7-.2-1.4-.8-1.9-.5-.5-1.1-.7-1.9-.7-.7 0-1.4.3-1.9.7-.5.5-.8 1.1-.8 1.9s.3 1.4.8 1.9 1.1.7 1.9.7m27.2 30.6V371c-2 1.5-4.1 2.2-6.2 2.2-2.6 0-4.7-.9-6.3-2.6-1.5-1.7-2.3-4-2.3-7 0-3.1.8-5.5 2.5-7.4q2.4-2.7 6.3-2.7c2.1 0 4.1.7 6 2v-4.1c-1.7-.9-3.6-1.3-5.8-1.3-4.1 0-7.2 1.3-9.6 3.8-2.3 2.5-3.5 5.9-3.5 10 0 3.7 1 6.7 3.2 9.1 2.3 2.4 5.2 3.6 8.8 3.6 2.7 0 4.9-.5 6.9-1.7m10.2-11.7c0-2.9.7-5.3 1.9-6.9 1.1-1.5 2.5-2.2 4.1-2.2 1.4 0 2.4.3 3.1.8v-4.2q-.9-.3-2.4-.3c-1.5 0-2.8.5-3.9 1.4-1.2 1-2.2 2.4-2.7 4.3H88v-5.2h-4v25.3h4zm23.2 13.4c3.8 0 6.9-1.2 9.2-3.7 2.3-2.4 3.4-5.7 3.4-9.7 0-4.1-1-7.3-3.2-9.6-2.1-2.3-5-3.5-8.8-3.5s-6.9 1.1-9.2 3.3c-2.4 2.4-3.7 5.8-3.7 10.2 0 3.8 1 7 3.2 9.3 2.3 2.5 5.3 3.7 9.1 3.7m-5.7-20.5c1.5-1.6 3.6-2.4 6.1-2.4q3.9 0 6 2.4c1.5 1.7 2.2 4.1 2.2 7.4 0 3.1-.7 5.5-2 7.1-1.4 1.7-3.4 2.6-6.1 2.6-2.6 0-4.6-.9-6.2-2.6-1.5-1.7-2.3-4.1-2.3-7.1-.1-3.1.7-5.7 2.3-7.4m36 18.3c1.5-1.4 2.4-3.1 2.4-5.2 0-1.9-.7-3.4-1.9-4.6-1-1-2.5-1.9-4.7-2.8-2-.8-3.2-1.5-3.8-2.1s-1-1.5-1-2.6c0-1 .4-1.9 1.2-2.5s1.9-1 3.3-1c2.2 0 4.1.6 5.8 1.8v-4.1q-2.4-1.2-5.4-1.2c-2.6 0-4.8.7-6.4 2.1-1.7 1.4-2.5 3.2-2.5 5.3 0 1.9.6 3.4 1.6 4.5.9 1 2.4 2 4.5 2.8 2 .9 3.4 1.7 4.1 2.3.7.7 1 1.5 1 2.4q0 3.6-4.8 3.6-3.6 0-6.6-2.4v4.4c1.8 1.1 3.9 1.5 6.2 1.5 3 0 5.4-.7 7-2.2m19.3-24.3c-3.8 0-6.9 1.1-9.2 3.3-2.4 2.4-3.7 5.8-3.7 10.2 0 3.8 1.1 7 3.2 9.3 2.3 2.4 5.3 3.7 9.1 3.7 3.9 0 6.9-1.2 9.2-3.7 2.3-2.4 3.4-5.7 3.4-9.7 0-4.1-1.1-7.3-3.2-9.6s-5.1-3.5-8.8-3.5m7.9 13.3c0 3.1-.7 5.5-2 7.1-1.4 1.7-3.4 2.6-6.1 2.6-2.6 0-4.6-.9-6.2-2.6-1.5-1.7-2.3-4.1-2.3-7.1q0-4.95 2.4-7.5c1.5-1.6 3.6-2.4 6.1-2.4q3.75 0 6 2.4c1.3 1.9 2.1 4.3 2.1 7.5m10.9 12.7h4v-21.9h5.9v-3.4h-5.9v-3.9c0-3.5 1.4-5.3 4.2-5.3 1 0 1.9.2 2.7.7v-3.7c-.7-.3-1.7-.4-2.9-.4-2.2 0-4 .7-5.4 2-1.7 1.6-2.6 3.7-2.6 6.6v4.1h-4.3v3.4h4.3zm16.6-6.9c0 4.9 2.2 7.5 6.6 7.5 1.6 0 2.8-.3 3.8-.8v-3.5c-.7.6-1.6.8-2.6.8-1.4 0-2.3-.3-2.9-1.1-.6-.7-.9-2-.9-3.6v-14.3h6.4v-3.4h-6.4v-7.5c-1.4.5-2.8.9-4.1 1.3v6.1h-4.4v3.4h4.4zm434.8 46.6c-1.4-1.3-3-2-5-2s-3.7.7-5.1 2c-1.4 1.4-2 3.1-2 5 0 2 .7 3.7 2 5 1.4 1.3 3.1 2 5.1 2s3.7-.7 5.1-2c1.4-1.4 2.1-3 2.1-5-.1-2.1-.8-3.7-2.2-5m-.6 9.5q-1.8 1.8-4.5 1.8c-1.8 0-3.2-.6-4.5-1.8a6.42 6.42 0 0 1-1.9-4.6c0-1.8.6-3.2 1.8-4.5q1.8-1.8 4.5-1.8c1.8 0 3.2.6 4.5 1.8 1.2 1.2 1.9 2.7 1.9 4.5 0 1.9-.5 3.4-1.8 4.6m-3.7-4.1c.7-.2 1.3-.5 1.7-.9s.6-1 .6-1.6c0-.7-.2-1.3-.7-1.7-.6-.5-1.5-.7-2.6-.7h-2.6v9.1h1.3v-3.8h.8c.6 0 1.1.6 1.6 1.6l1 2.2h1.5l-1.2-2.4c-.4-1.2-.9-1.7-1.4-1.8m-.9-.8h-1.4v-3.1h1.1c.8 0 1.4.1 1.7.4.3.2.4.6.4 1.1.1 1.1-.6 1.6-1.8 1.6m-226-70.7h1.1v-9.1h3v-1.1h-7.1v1.1h3zm6.9-6.8c0-.9 0-1.6-.1-2 .1.5.2.8.3 1l3.5 7.8h.6l3.5-7.9c.1-.2.2-.6.3-1-.1.8-.1 1.5-.1 2v6.9h1.2v-10.2h-1.5l-3.2 7c-.1.3-.3.7-.5 1.3h-.1c-.1-.3-.2-.7-.5-1.2l-3.2-7.1h-1.6v10.2h1.1z" style="fill:#231f1f"/></svg>