<svg xmlns="http://www.w3.org/2000/svg" xml:space="preserve" viewBox="-0.06 83.4 512.16 345.26"><path d="M116.8 428.5c-38.3-3.3-67.5-14.9-88.8-35.2-21.6-20.6-30.9-47.5-27.3-79 4.2-36.2 21.3-61.7 51.4-76.6 23.1-11.5 46.2-15.9 83.8-15.9 26.7 0 49.1 2.2 83.2 8.1 8.4 1.5 15.8 2.7 16.2 2.7.7 0 1.3-2.7 2.8-13.5 2.8-19.5 3.3-26.2 2.5-34.1-.9-9.1-2-13.4-5.5-20.5-8.9-18.2-29.9-29.3-63.7-33.7-9.7-1.2-31.9-1.4-41.6-.3-16.2 1.8-25.3 4.2-45.4 11.8-11.8 4.4-11.9 4.5-16.6 4.2-8.1-.5-13.6-4.2-17.2-11.4-1.5-3-1.7-4.2-1.7-8.3 0-6.1 1.6-9.3 7-14.4C68.5 101 89.2 91.2 110 87c13.3-2.7 19.9-3.3 37.5-3.2 18.2 0 29.8 1.1 46 4.1 26.9 5 47.3 13.9 62.7 27.2 4.6 3.9 11.5 11.7 14.4 16.2.9 1.4 1.8 2.5 2.1 2.5.2 0 1.7-1.7 3.3-3.7 23.3-29.8 62.6-46.7 108.6-46.7 32.5 0 62.8 8.3 85.3 23.3 17.9 11.9 32.4 30.3 38.3 48.4 3.4 10.4 3.9 14.2 3.9 29.3 0 9.4-.2 15.7-.8 18.7-5.3 29.7-17.8 50.2-39.6 64.9-17.5 11.8-39.6 18.7-68.4 21.4-14.5 1.4-41 1.2-58.2-.3-14.6-1.3-32.5-3.6-40.1-5.1-6.4-1.3-28.3-5-28.5-4.8-.1.1-1.1 6.7-2.3 14.6-1.9 12.7-2.2 15.9-2.2 26 0 10.3.1 12.1 1.3 16.9 4 15.3 12.8 25.6 28.7 33.5 15.7 7.8 32.1 11.2 57 11.7 11 .2 16.6.1 23.5-.7 16.7-1.8 24.3-3.7 46.4-11.9 5.5-2 11.2-3.9 12.5-4.1 2.9-.5 8.4.5 11.6 2.1 5.7 2.9 10.6 10.7 10.5 17 0 7.4-2.5 11.8-9.8 17.7-17.4 13.9-39.6 22.4-66.1 25.4-9.5 1.1-31 1.2-41.5.3-29.4-2.6-49.7-7.6-68.4-16.9-14.5-7.3-25.6-16.3-33.9-27.5-2-2.8-3.8-5.1-3.8-5.2-.1-.1-1.4 1.5-3 3.6-7 9-17.6 18.7-28 25.5-15 9.8-36.6 17.3-58.4 20.3-6.7.7-28.3 1.5-33.8 1m37.5-42.2c17.8-4 33.7-12.9 45.2-25.5 10.5-11.4 19.1-28.6 23.9-47.5 2.7-10.7 7.1-40.3 6.1-40.9-.4-.2-2.7-.6-5.2-.8s-9.6-1.1-15.7-1.9c-36.6-4.8-59.1-6.6-71.7-5.9-24 1.3-33.7 3.4-48.1 10.3-7.4 3.5-12.5 7.4-16.5 12.4-5.8 7.3-9.3 14.5-11.7 24.2-1.8 7.1-1.9 25.6-.3 31.5 2.8 10 6 15.7 13.4 23.3 10.1 10.3 23.4 17.2 39.9 20.6 8.4 1.8 8.2 1.7 22.3 1.5 10.3-.1 14.2-.4 18.4-1.3m233.5-139.1c14.9-1.3 24.1-3.6 35.3-9 9.4-4.4 14.8-8.9 20-16.6 7.6-11.2 10.5-21.8 10.5-37.6-.1-11.2-1-15.9-4.9-24-8.6-18-28.9-31-55.6-35.4-6.6-1.1-24.5-.9-31.3.3-13.1 2.4-24.2 6.8-33.9 13.4-18 12.3-30.5 30.7-37.4 55.5-2.7 9.7-3.5 13.5-5.9 30.3l-2.2 15.5 3 .3c9.1 1 29.5 3.5 41.4 5 7.5 1 16.6 2 20.4 2.3 10.6 1 30 1 40.6 0" style="fill:#24a1c1"/></svg>