<?xml version="1.0" encoding="UTF-8" standalone="no"?>
<svg
   version="1.1"
   viewBox="0 0 300.00378 299.99999"
   id="svg39"
   width="300.00378"
   height="300"
   xmlns="http://www.w3.org/2000/svg"
   xmlns:svg="http://www.w3.org/2000/svg">
  <defs
     id="defs1">
    <style
       id="style1">.a{fill:#88171a;}.b{fill:#231f20;}</style>
  </defs>
  <title
     id="title1">wireguard</title>
  <path
     d="m 299.74526,145.56 c 0,0 6.9396,-145.56 -153.04,-145.56 C 5.2252602,0 0.80526022,139.63 0.80526022,139.63 c 0,0 -20.81100022,160.37 149.15999978,160.37 163.02,0 149.78,-154.44 149.78,-154.44 z"
     id="path37"
     style="fill:#88171a;fill-opacity:1" />
  <path
     id="path1"
     style="fill:#ffffff;fill-opacity:1"
     d="m 101.94526,94.697 c 30.017,-18.364 68.366,-7.1401 82.735,20.476 2.7233,5.2338 3.0694,13.291 1.3447,18.782 -5.9546,18.956 -20.014,29.587 -39.312,34.103 5.6892,-4.8707 10.218,-10.394 11.659,-18.025 a 26.402,26.402 0 0 0 -4.5425,-20.956 26.76,26.76 0 0 0 -30.811,-9.3892 c -11.881,4.5111 -18.389,15.354 -17.216,28.683 1.0898,12.381 10.484,20.405 28.061,23.453 -2.627,1.3904 -4.6503,2.4144 -6.6299,3.5172 a 63.918,63.918 0 0 0 -20.544,17.868 c -1.7839,2.4084 -3.0104,2.6024 -5.727,0.94116 -35.338,-21.61 -37.609,-75.844 0.98226,-99.453 z m -26.449,133.53 c -5.6769,1.441 -11.178,3.5742 -16.981,5.4775 2.8385,-19.151 25.265,-36.788 44.23,-34.776 a 48.881,48.881 0 0 0 -9.242,25.893 c -6.302,1.1606 -12.241,1.9414 -18.007,3.405 z m 120.79,-186.98 c 5.6099,0.20612 11.23,0.12091 16.844,0.25378 a 29.052,29.052 0 0 1 4.1674,0.58069 40.607,40.607 0 0 1 -4.2357,5.4332 c -2.007,1.8701 -4.2745,3.6986 -7.1661,0.856 -0.6955,-0.68372 -2.3386,-0.52679 -3.5487,-0.54272 -5.5823,-0.07336 -11.172,-0.25177 -16.746,-0.04132 a 104.04,104.04 0 0 0 -14.425,1.473 c -0.89368,0.16046 -2.2299,3.1315 -1.8191,4.227 0.9693,2.5853 2.3833,5.4363 4.4779,7.0898 7.7403,6.11 15.972,11.596 23.748,17.664 7.556,5.8966 14.589,12.358 18.875,21.253 5.5843,11.59 5.747,23.743 3.3388,35.95 -4.0203,20.378 -14.333,37.261 -31.032,49.524 -6.7288,4.941 -15.06,7.7451 -22.767,11.295 -6.778,3.1225 -13.755,5.8115 -20.549,8.9008 -12.249,5.5695 -19.133,18.865 -17.108,32.688 1.8585,12.685 12.987,23.271 25.735,25.456 15.292,2.6216 31.071,-7.3163 34.812,-22.86 4.2067,-17.478 -5.2898,-33.083 -23.065,-37.813 -0.78271,-0.20831 -1.5684,-0.40552 -3.2012,-0.8269 4.7549,-2.1245 8.8614,-3.6381 12.653,-5.7244 q 9.9213,-5.4594 19.481,-11.562 c 1.8742,-1.199 2.8868,-1.1996 4.4852,0.18225 12.225,10.57 19.518,23.718 21.563,39.839 3.3845,26.684 -9.2471,51.198 -33.072,63.762 -36.86,19.439 -81.965,-2.6864 -90.106,-43.552 -6.9738,-35.003 17.73,-66.754 47.462,-72.884 12.787,-2.6364 24.48,-7.9596 33.57,-17.807 5.8652,-6.3541 8.7084,-11.806 9.6772,-14.266 a 39.565,39.565 0 0 0 2.7211,-14.469 33.867,33.867 0 0 0 -2.9654,-12.398 c -3.104,-7.075 -14.995,-18.33 -17.939,-20.704 l -28,-21.921 c -0.98761,-0.81256 -2.0994,-0.75366 -4.5079,-0.59045 -2.8611,0.19391 -10.175,0.59888 -13.331,-0.22815 2.553,-1.9321 9.5132,-4.7451 12.502,-7.007 -9.0734,-6.1297 -19.43,-3.9158 -28.941,-5.7461 2.1992,-4.0959 13.081,-10.39 19.27,-11.091 a 91.533,91.533 0 0 0 -1.6876,-10.281 c -0.37781,-1.3917 -1.9312,-2.7408 -3.2864,-3.5355 -3.286,-1.9267 -6.7694,-3.5167 -10.549,-5.4327 a 21.936,21.936 0 0 1 11.332,-3.5055 42.316,42.316 0 0 1 11.348,1.1056 c 6.7422,1.5405 12.124,0.53491 17.488,-4.048 -4.222,-1.7002 -8.4435,-3.2535 -12.538,-5.0907 a 123.04,123.04 0 0 1 -11.779,-6.1583 c 10.622,1.4755 20.896,5.4585 31.757,4.0034 q 0.1387,-0.74048 0.27728,-1.4809 c -8.1194,-1.8899 -16.239,-3.7798 -25.229,-5.8724 15.04,-1.3769 29.042,-1.604 42.301,4.8541 3.731,1.8173 7.6348,3.3215 11.211,5.3972 1.7443,1.0124 2.9186,3.0078 4.3496,4.5594 1.1366,1.2325 2.0495,2.8837 3.446,3.6264 5.3,2.8184 11.134,2.9291 17.078,2.7879 0.0444,-0.67694 0.0861,-1.3114 0.1308,-1.9933 5.9821,1.8693 12.715,8.7679 12.704,13.806 -9.6911,0 -19.374,-0.037 -29.056,0.05389 -1.0348,0.0097 -2.0626,0.76563 -3.0936,1.1754 0.97986,0.57067 1.9428,1.5994 2.9423,1.6362 z" />
  <path
     class="a"
     d="m 183.78526,26.906 a 1.4806,1.4806 0 0 0 -0.18927,2.3686 2.2326,2.2326 0 0 0 3.0724,0.8219 c 0.9328,-0.47052 1.8478,-0.97137 2.975,-1.5665 -0.9079,-0.775 -1.6362,-1.4148 -2.3857,-2.0324 -1.318,-1.086 -2.411,-0.40386 -3.4724,0.40833 z"
     id="path38"
     style="display:inline" />
</svg>
